<svg width="53" height="52" viewBox="0 0 53 52" fill="none" xmlns="http://www.w3.org/2000/svg">
<g id="Grupo 165668">
<path id="Elipse 182" d="M26.2368 52C40.5962 52 52.2368 40.3594 52.2368 26C52.2368 11.6406 40.5962 0 26.2368 0C11.8774 0 0.236816 11.6406 0.236816 26C0.236816 40.3594 11.8774 52 26.2368 52Z" fill="#8575A9"/>
<path id="Caminho 2663" d="M24.362 26.031L29.996 31.666C30.1499 31.8208 30.2363 32.0302 30.2363 32.2485C30.2363 32.4668 30.1499 32.6762 29.996 32.831L29.503 33.325C29.3483 33.4792 29.1389 33.5658 28.9205 33.5658C28.7021 33.5658 28.4926 33.4792 28.338 33.325L21.629 26.616C21.4747 26.4604 21.3882 26.2501 21.3882 26.031C21.3882 25.8119 21.4747 25.6016 21.629 25.446L28.329 18.746C28.4838 18.592 28.6932 18.5056 28.9115 18.5056C29.1298 18.5056 29.3392 18.592 29.494 18.746L29.988 19.24C30.1425 19.3947 30.2293 19.6044 30.2293 19.823C30.2293 20.0416 30.1425 20.2513 29.988 20.406L24.362 26.031Z" fill="white"/>
</g>
</svg>
