<svg width="331" height="277" viewBox="0 0 331 277" fill="none" xmlns="http://www.w3.org/2000/svg">
<rect width="331" height="277" fill="#1E1E1E" style="fill:#1E1E1E;fill:color(display-p3 0.1176 0.1176 0.1176);fill-opacity:1;"/>
<g clip-path="url(#clip0_0_1)">
<rect width="1920" height="3799" transform="translate(-761 -1793)" fill="white" style="fill:white;fill-opacity:1;"/>
<path d="M-618 -570H1018C1029.14 -570 1039.82 -565.575 1047.7 -557.698C1055.58 -549.822 1060 -539.139 1060 -528V326C1060 337.139 1055.58 347.822 1047.7 355.698C1039.82 363.575 1029.14 368 1018 368H-660V-528C-660 -539.139 -655.575 -549.822 -647.698 -557.698C-639.822 -565.575 -629.139 -570 -618 -570Z" fill="#8575A9" style="fill:#8575A9;fill:color(display-p3 0.5216 0.4588 0.6627);fill-opacity:1;"/>
<path d="M2.5 -328.5H396.5C403.926 -328.5 411.048 -325.55 416.299 -320.299C421.55 -315.048 424.5 -307.926 424.5 -300.5V265.709C424.5 273.135 421.55 280.257 416.299 285.508C411.048 290.759 403.926 293.709 396.5 293.709H-25.5V-300.5C-25.5 -307.926 -22.55 -315.048 -17.299 -320.299C-12.048 -325.55 -4.92606 -328.5 2.5 -328.5Z" fill="white" style="fill:white;fill-opacity:1;"/>
<path d="M2.5 -328H396.5C403.793 -328 410.788 -325.103 415.945 -319.945C421.103 -314.788 424 -307.793 424 -300.5V265.709C424 273.002 421.103 279.997 415.945 285.154C410.788 290.312 403.793 293.209 396.5 293.209H-25V-300.5C-25 -307.793 -22.1027 -314.788 -16.9454 -319.945C-11.7882 -325.103 -4.79345 -328 2.5 -328Z" stroke="#DFE5F4" style="stroke:#DFE5F4;stroke:color(display-p3 0.8745 0.8980 0.9569);stroke-opacity:1;"/>
<g filter="url(#filter0_d_0_1)">
</g>
<path d="M254.956 24.1139H186.522C185.673 24.1139 184.859 23.7767 184.259 23.1766C183.659 22.5765 183.322 21.7626 183.322 20.9139C183.322 20.0652 183.659 19.2512 184.259 18.6511C184.859 18.051 185.673 17.7139 186.522 17.7139H254.956C255.805 17.7139 256.619 18.051 257.219 18.6511C257.819 19.2512 258.156 20.0652 258.156 20.9139C258.156 21.7626 257.819 22.5765 257.219 23.1766C256.619 23.7767 255.805 24.1139 254.956 24.1139Z" fill="#CCCCCC" style="fill:#CCCCCC;fill:color(display-p3 0.8000 0.8000 0.8000);fill-opacity:1;"/>
<path d="M268.163 34.9195H186.522C185.673 34.9195 184.859 34.5824 184.259 33.9823C183.659 33.3822 183.322 32.5682 183.322 31.7195C183.322 30.8709 183.659 30.0569 184.259 29.4568C184.859 28.8567 185.673 28.5195 186.522 28.5195H268.163C269.012 28.5195 269.826 28.8567 270.426 29.4568C271.026 30.0569 271.363 30.8709 271.363 31.7195C271.363 32.5682 271.026 33.3822 270.426 33.9823C269.826 34.5824 269.012 34.9195 268.163 34.9195Z" fill="#CCCCCC" style="fill:#CCCCCC;fill:color(display-p3 0.8000 0.8000 0.8000);fill-opacity:1;"/>
<path d="M254.956 72.5387H186.522C185.673 72.5387 184.859 72.2015 184.259 71.6014C183.659 71.0013 183.322 70.1873 183.322 69.3387C183.322 68.49 183.659 67.676 184.259 67.0759C184.859 66.4758 185.673 66.1387 186.522 66.1387H254.956C255.805 66.1387 256.619 66.4758 257.219 67.0759C257.819 67.676 258.156 68.49 258.156 69.3387C258.156 70.1873 257.819 71.0013 257.219 71.6014C256.619 72.2015 255.805 72.5387 254.956 72.5387Z" fill="#CCCCCC" style="fill:#CCCCCC;fill:color(display-p3 0.8000 0.8000 0.8000);fill-opacity:1;"/>
<path d="M268.163 83.3443H186.522C185.673 83.3443 184.859 83.0072 184.259 82.4071C183.659 81.807 183.322 80.993 183.322 80.1443C183.322 79.2956 183.659 78.4817 184.259 77.8816C184.859 77.2815 185.673 76.9443 186.522 76.9443H268.163C269.012 76.9443 269.826 77.2815 270.426 77.8816C271.026 78.4817 271.363 79.2956 271.363 80.1443C271.363 80.993 271.026 81.807 270.426 82.4071C269.826 83.0072 269.012 83.3443 268.163 83.3443Z" fill="#CCCCCC" style="fill:#CCCCCC;fill:color(display-p3 0.8000 0.8000 0.8000);fill-opacity:1;"/>
<path d="M254.956 120.963H186.522C185.673 120.963 184.859 120.625 184.259 120.025C183.659 119.425 183.322 118.611 183.322 117.763C183.322 116.914 183.659 116.1 184.259 115.5C184.859 114.9 185.673 114.563 186.522 114.562H254.956C255.376 114.562 255.792 114.645 256.181 114.806C256.569 114.967 256.922 115.203 257.219 115.5C257.516 115.797 257.752 116.15 257.912 116.538C258.073 116.926 258.156 117.342 258.156 117.763C258.156 118.183 258.073 118.599 257.912 118.987C257.752 119.375 257.516 119.728 257.219 120.025C256.922 120.322 256.569 120.558 256.181 120.719C255.792 120.88 255.376 120.963 254.956 120.963Z" fill="#CCCCCC" style="fill:#CCCCCC;fill:color(display-p3 0.8000 0.8000 0.8000);fill-opacity:1;"/>
<path d="M268.163 131.769H186.522C185.673 131.769 184.859 131.432 184.259 130.832C183.659 130.232 183.322 129.418 183.322 128.569C183.322 127.72 183.659 126.907 184.259 126.306C184.859 125.706 185.673 125.369 186.522 125.369H268.163C269.012 125.369 269.826 125.706 270.426 126.306C271.026 126.907 271.363 127.72 271.363 128.569C271.363 129.418 271.026 130.232 270.426 130.832C269.826 131.432 269.012 131.769 268.163 131.769Z" fill="#CCCCCC" style="fill:#CCCCCC;fill:color(display-p3 0.8000 0.8000 0.8000);fill-opacity:1;"/>
<path d="M158.025 37.632C164.275 37.632 169.341 32.5657 169.341 26.316C169.341 20.0663 164.275 15 158.025 15C151.775 15 146.709 20.0663 146.709 26.316C146.709 32.5657 151.775 37.632 158.025 37.632Z" fill="#8575A9" style="fill:#8575A9;fill:color(display-p3 0.5216 0.4588 0.6627);fill-opacity:1;"/>
<path d="M156.904 30.6331C156.649 30.6334 156.402 30.551 156.198 30.3981L156.185 30.3891L153.526 28.3551C153.4 28.2616 153.294 28.1441 153.214 28.0093C153.134 27.8745 153.082 27.7251 153.06 27.5699C153.039 27.4147 153.048 27.2567 153.088 27.1052C153.128 26.9536 153.197 26.8115 153.293 26.6871C153.388 26.5627 153.507 26.4586 153.643 26.3806C153.779 26.3027 153.929 26.2526 154.085 26.2333C154.24 26.2139 154.398 26.2257 154.549 26.2679C154.7 26.3101 154.841 26.3819 154.964 26.4791L156.689 27.8001L160.759 22.4901C160.853 22.367 160.971 22.2636 161.105 22.186C161.24 22.1083 161.388 22.0579 161.542 22.0375C161.695 22.0172 161.852 22.0274 162.002 22.0674C162.151 22.1075 162.292 22.1767 162.415 22.2711C162.664 22.462 162.827 22.7436 162.868 23.0543C162.909 23.3649 162.825 23.6792 162.635 23.9281L157.847 30.1711C157.736 30.315 157.594 30.4314 157.431 30.5113C157.268 30.5913 157.089 30.6326 156.907 30.6321L156.904 30.6331Z" fill="white" style="fill:white;fill-opacity:1;"/>
<path d="M159.191 86.0558C165.441 86.0558 170.507 80.9895 170.507 74.7398C170.507 68.4902 165.441 63.4238 159.191 63.4238C152.941 63.4238 147.875 68.4902 147.875 74.7398C147.875 80.9895 152.941 86.0558 159.191 86.0558Z" fill="#CCCCCC" style="fill:#CCCCCC;fill:color(display-p3 0.8000 0.8000 0.8000);fill-opacity:1;"/>
<path d="M158.025 134.481C164.275 134.481 169.341 129.414 169.341 123.165C169.341 116.915 164.275 111.849 158.025 111.849C151.775 111.849 146.709 116.915 146.709 123.165C146.709 129.414 151.775 134.481 158.025 134.481Z" fill="#CCCCCC" style="fill:#CCCCCC;fill:color(display-p3 0.8000 0.8000 0.8000);fill-opacity:1;"/>
<path d="M129.638 135.12L40.707 153.865C38.1371 154.404 35.4583 153.901 33.2585 152.467C31.0587 151.034 29.5175 148.786 28.973 146.217L13.713 73.817C13.1742 71.247 13.6768 68.5683 15.1106 66.3685C16.5444 64.1687 18.7922 62.6275 21.361 62.083L110.292 43.338C112.862 42.7992 115.541 43.3018 117.74 44.7356C119.94 46.1694 121.481 48.4172 122.026 50.986L137.286 123.386C137.825 125.956 137.322 128.635 135.888 130.834C134.455 133.034 132.207 134.575 129.638 135.12Z" fill="white" style="fill:white;fill-opacity:1;"/>
<path d="M129.638 135.12L40.707 153.865C38.1371 154.404 35.4583 153.901 33.2585 152.467C31.0587 151.034 29.5175 148.786 28.973 146.217L13.713 73.817C13.1742 71.247 13.6768 68.5683 15.1106 66.3685C16.5444 64.1687 18.7922 62.6275 21.361 62.083L110.292 43.338C112.862 42.7992 115.541 43.3018 117.74 44.7356C119.94 46.1694 121.481 48.4172 122.026 50.986L137.286 123.386C137.825 125.956 137.322 128.635 135.888 130.834C134.455 133.034 132.207 134.575 129.638 135.12ZM21.601 63.22C19.3345 63.7004 17.3511 65.0602 16.0858 67.001C14.8206 68.9419 14.3769 71.3054 14.852 73.573L30.112 145.973C30.5924 148.239 31.9522 150.223 33.893 151.488C35.8339 152.753 38.1974 153.197 40.465 152.722L129.396 133.977C131.662 133.497 133.646 132.137 134.911 130.196C136.176 128.255 136.62 125.892 136.145 123.624L120.885 51.224C120.405 48.9575 119.045 46.9741 117.104 45.7088C115.163 44.4436 112.8 43.9999 110.532 44.475L21.601 63.22Z" fill="#3F3D56" style="fill:#3F3D56;fill:color(display-p3 0.2471 0.2392 0.3373);fill-opacity:1;"/>
<path d="M104.767 67.2107L59.885 76.6707C59.4924 76.7617 59.0798 76.7004 58.7306 76.499C58.3815 76.2976 58.1218 75.9711 58.004 75.5857C57.9496 75.3843 57.9369 75.174 57.9666 74.9675C57.9963 74.761 58.0678 74.5628 58.1767 74.3849C58.2857 74.2071 58.4298 74.0533 58.6002 73.9331C58.7707 73.8128 58.9639 73.7287 59.168 73.6857L104.855 64.0557C106.639 65.0607 106.075 66.9307 104.766 67.2067L104.767 67.2107Z" fill="#CCCCCC" style="fill:#CCCCCC;fill:color(display-p3 0.8000 0.8000 0.8000);fill-opacity:1;"/>
<path d="M106.426 75.0837L61.5439 84.5437C61.1513 84.6348 60.7387 84.5734 60.3896 84.372C60.0404 84.1706 59.7807 83.8442 59.6629 83.4587C59.6085 83.2573 59.5958 83.047 59.6255 82.8405C59.6552 82.6341 59.7267 82.4359 59.8357 82.258C59.9446 82.0801 60.0887 81.9264 60.2592 81.8061C60.4296 81.6859 60.6228 81.6017 60.8269 81.5587L106.514 71.9287C108.298 72.9337 107.734 74.8037 106.425 75.0797L106.426 75.0837Z" fill="#CCCCCC" style="fill:#CCCCCC;fill:color(display-p3 0.8000 0.8000 0.8000);fill-opacity:1;"/>
<path d="M52.786 91.0717L39.086 93.9587C38.6387 94.0523 38.1726 93.9648 37.7899 93.7153C37.4071 93.4658 37.1388 93.0747 37.044 92.6277L33.637 76.4627C33.5433 76.0155 33.6309 75.5494 33.8804 75.1666C34.1299 74.7838 34.521 74.5156 34.968 74.4207L48.668 71.5337C49.1152 71.4401 49.5813 71.5276 49.9641 71.7771C50.3469 72.0266 50.6151 72.4178 50.71 72.8647L54.117 89.0287C54.2106 89.4759 54.123 89.942 53.8735 90.3248C53.624 90.7076 53.2329 90.9758 52.786 91.0707V91.0717Z" fill="#CCCCCC" style="fill:#CCCCCC;fill:color(display-p3 0.8000 0.8000 0.8000);fill-opacity:1;"/>
<path d="M109.693 91.2292L41.193 105.668C40.8003 105.759 40.3878 105.698 40.0386 105.496C39.6895 105.295 39.4298 104.969 39.312 104.583C39.2576 104.382 39.2448 104.171 39.2745 103.965C39.3042 103.759 39.3757 103.56 39.4847 103.382C39.5937 103.205 39.7378 103.051 39.9082 102.931C40.0787 102.81 40.2719 102.726 40.476 102.683L109.776 88.0752C111.56 89.0802 110.996 90.9502 109.687 91.2262L109.693 91.2292Z" fill="#CCCCCC" style="fill:#CCCCCC;fill:color(display-p3 0.8000 0.8000 0.8000);fill-opacity:1;"/>
<path d="M111.353 99.1081L42.853 113.546C42.4603 113.637 42.0477 113.576 41.6986 113.374C41.3494 113.173 41.0897 112.847 40.972 112.461C40.9175 112.26 40.9048 112.049 40.9345 111.843C40.9642 111.636 41.0357 111.438 41.1447 111.26C41.2536 111.083 41.3978 110.929 41.5682 110.809C41.7387 110.688 41.9318 110.604 42.136 110.561L111.436 95.9531C113.22 96.9581 112.656 98.8281 111.347 99.1041L111.353 99.1081Z" fill="#CCCCCC" style="fill:#CCCCCC;fill:color(display-p3 0.8000 0.8000 0.8000);fill-opacity:1;"/>
<path d="M113.012 106.97L44.512 121.408C44.1193 121.499 43.7067 121.438 43.3576 121.237C43.0084 121.035 42.7487 120.709 42.631 120.323C42.5766 120.122 42.5638 119.912 42.5935 119.705C42.6232 119.499 42.6947 119.301 42.8037 119.123C42.9126 118.945 43.0568 118.791 43.2272 118.671C43.3977 118.551 43.5909 118.466 43.795 118.423L113.095 103.815C114.879 104.82 114.315 106.69 113.006 106.966L113.012 106.97Z" fill="#CCCCCC" style="fill:#CCCCCC;fill:color(display-p3 0.8000 0.8000 0.8000);fill-opacity:1;"/>
<path d="M114.672 114.849L46.1719 129.287C45.7793 129.378 45.3667 129.317 45.0176 129.116C44.6684 128.914 44.4087 128.588 44.2909 128.202C44.2364 128.001 44.2235 127.791 44.2531 127.584C44.2828 127.378 44.3543 127.179 44.4633 127.001C44.5723 126.824 44.7164 126.67 44.887 126.549C45.0575 126.429 45.2508 126.345 45.4549 126.302L114.755 111.694C116.539 112.699 115.975 114.569 114.666 114.845L114.672 114.849Z" fill="#CCCCCC" style="fill:#CCCCCC;fill:color(display-p3 0.8000 0.8000 0.8000);fill-opacity:1;"/>
<path d="M116.33 122.719L47.83 137.157C47.4373 137.249 47.0247 137.187 46.6756 136.986C46.3264 136.784 46.0667 136.458 45.9489 136.072C45.8945 135.871 45.8818 135.661 45.9115 135.454C45.9412 135.248 46.0127 135.05 46.1217 134.872C46.2306 134.694 46.3747 134.54 46.5452 134.42C46.7156 134.3 46.9088 134.215 47.1129 134.172L116.413 119.564C118.197 120.569 117.633 122.439 116.324 122.715L116.33 122.719Z" fill="#CCCCCC" style="fill:#CCCCCC;fill:color(display-p3 0.8000 0.8000 0.8000);fill-opacity:1;"/>
<path d="M128.422 86.6763C128.266 86.9587 128.132 87.2529 128.022 87.5563L99.9799 94.5153L95.102 89.4683L86.5229 95.8353L94.291 105.609C94.9185 106.399 95.7852 106.964 96.7611 107.219C97.7369 107.474 98.7692 107.406 99.7029 107.024L130.132 94.5903C131.132 95.3266 132.333 95.7409 133.574 95.7781C134.816 95.8153 136.039 95.4737 137.082 94.7987C138.124 94.1236 138.937 93.1472 139.411 91.9993C139.885 90.8513 139.998 89.5862 139.735 88.3723C139.473 87.1583 138.847 86.0531 137.941 85.2035C137.035 84.354 135.892 83.8003 134.664 83.6163C133.435 83.4323 132.18 83.6266 131.065 84.1734C129.95 84.7202 129.028 85.5936 128.421 86.6773L128.422 86.6763Z" fill="#A0616A" style="fill:#A0616A;fill:color(display-p3 0.6275 0.3804 0.4157);fill-opacity:1;"/>
<path d="M32.704 148.602C33.5781 148.332 34.3825 147.874 35.0604 147.259C35.7382 146.645 36.2731 145.889 36.6274 145.046C36.9817 144.202 37.1467 143.291 37.1109 142.377C37.075 141.463 36.8392 140.567 36.42 139.754L55.72 86.1162L42.32 83.7412L27.565 137.212C26.2445 138.007 25.2614 139.258 24.8022 140.729C24.3431 142.2 24.4398 143.789 25.074 145.193C25.7082 146.598 26.8358 147.721 28.2429 148.349C29.65 148.977 31.2388 149.067 32.708 148.602H32.704Z" fill="#A0616A" style="fill:#A0616A;fill:color(display-p3 0.6275 0.3804 0.4157);fill-opacity:1;"/>
<path d="M53.2669 95.637L40.0349 90.559C39.6582 90.4146 39.317 90.1906 39.0347 89.9024C38.7523 89.6141 38.5355 89.2684 38.3989 88.8887C38.2623 88.5091 38.2092 88.1044 38.2432 87.7024C38.2772 87.3003 38.3975 86.9103 38.596 86.559L45.5379 74.251C45.9016 73.2886 46.4522 72.4076 47.1581 71.6591C47.8639 70.9105 48.7109 70.3091 49.6503 69.8895C50.5897 69.4699 51.6029 69.2405 52.6314 69.2144C53.66 69.1884 54.6835 69.3662 55.6429 69.7377C56.6024 70.1091 57.4788 70.6669 58.2216 71.3788C58.9644 72.0907 59.5589 72.9426 59.9709 73.8853C60.3828 74.8281 60.604 75.8432 60.6217 76.8719C60.6394 77.9006 60.4532 78.9226 60.0739 79.879L57.011 93.626C56.9232 94.0196 56.7516 94.3896 56.508 94.7108C56.2643 95.0321 55.9543 95.2971 55.599 95.4878C55.2437 95.6784 54.8514 95.7903 54.449 95.8157C54.0466 95.8411 53.6434 95.7795 53.2669 95.635V95.637Z" fill="#8575A9" style="fill:#8575A9;fill:color(display-p3 0.5216 0.4588 0.6627);fill-opacity:1;"/>
<path d="M83.1339 249.306H90.2769L93.6769 221.756H83.1329L83.1339 249.306Z" fill="#A0616A" style="fill:#A0616A;fill:color(display-p3 0.6275 0.3804 0.4157);fill-opacity:1;"/>
<path d="M81.311 246.974H95.378C97.7554 246.974 100.035 247.918 101.716 249.599C103.398 251.28 104.342 253.56 104.342 255.938V256.229H81.312L81.311 246.974Z" fill="#2F2E41" style="fill:#2F2E41;fill:color(display-p3 0.1843 0.1804 0.2549);fill-opacity:1;"/>
<path d="M42.934 249.306H50.077L53.477 221.756H42.933L42.934 249.306Z" fill="#A0616A" style="fill:#A0616A;fill:color(display-p3 0.6275 0.3804 0.4157);fill-opacity:1;"/>
<path d="M41.112 246.974H55.179C57.5564 246.974 59.8364 247.918 61.5175 249.599C63.1986 251.28 64.143 253.56 64.143 255.938V256.229H41.113L41.112 246.974Z" fill="#2F2E41" style="fill:#2F2E41;fill:color(display-p3 0.1843 0.1804 0.2549);fill-opacity:1;"/>
<path d="M50.422 238.217H41.38C41.0252 238.217 40.6742 238.145 40.348 238.005C40.0219 237.866 39.7275 237.661 39.4827 237.405C39.2378 237.148 39.0476 236.844 38.9236 236.512C38.7995 236.179 38.7442 235.825 38.761 235.471L43.054 143.227L43.325 143.22L86.973 142.082L95.514 234.382C95.5468 234.728 95.5105 235.077 95.4072 235.409C95.304 235.74 95.1358 236.048 94.9125 236.315C94.6892 236.581 94.4152 236.8 94.1064 236.959C93.7977 237.119 93.4603 237.215 93.114 237.243L82.962 238.055C82.3242 238.106 81.6899 237.921 81.1785 237.537C80.6671 237.153 80.3137 236.595 80.185 235.968L67.2 170.26C67.1648 170.06 67.0591 169.88 66.902 169.751C66.7449 169.623 66.5469 169.555 66.344 169.56C66.1406 169.556 65.9425 169.625 65.7857 169.754C65.629 169.884 65.524 170.066 65.49 170.266L52.998 236.099C52.8802 236.696 52.559 237.233 52.0892 237.619C51.6194 238.005 51.0302 238.217 50.422 238.217Z" fill="#2F2E41" style="fill:#2F2E41;fill:color(display-p3 0.1843 0.1804 0.2549);fill-opacity:1;"/>
<path d="M66.979 60.9578C74.8816 60.9578 81.288 54.5515 81.288 46.6488C81.288 38.7462 74.8816 32.3398 66.979 32.3398C59.0763 32.3398 52.67 38.7462 52.67 46.6488C52.67 54.5515 59.0763 60.9578 66.979 60.9578Z" fill="#A0616A" style="fill:#A0616A;fill:color(display-p3 0.6275 0.3804 0.4157);fill-opacity:1;"/>
<path d="M62.181 154.037C55.361 154.037 48.356 152.244 42.549 146.944C42.24 146.664 42.0014 146.315 41.8527 145.925C41.7039 145.536 41.6492 145.116 41.693 144.701C42.315 139.116 45.33 110.281 43.632 91.0194C43.3011 87.422 43.8108 83.7969 45.1207 80.4302C46.4306 77.0635 48.5049 74.0472 51.18 71.6194C53.8086 69.1967 56.9643 67.4181 60.3981 66.4239C63.8318 65.4296 67.4496 65.247 70.966 65.8904C71.144 65.9224 71.322 65.9554 71.501 65.9904C77.075 67.1144 82.0413 70.2481 85.4552 74.7953C88.869 79.3426 90.4922 84.9862 90.016 90.6524C88.702 107.932 87.524 131.305 89.373 144.523C89.4494 145.064 89.3548 145.615 89.1025 146.099C88.8502 146.583 88.4529 146.976 87.966 147.223C83.757 149.347 73.211 154.037 62.181 154.037Z" fill="#8575A9" style="fill:#8575A9;fill:color(display-p3 0.5216 0.4588 0.6627);fill-opacity:1;"/>
<path d="M80.853 96.6665C80.5172 96.4433 80.2335 96.1502 80.0214 95.8073C79.8093 95.4644 79.6737 95.0797 79.624 94.6795L77.881 80.7035C77.5743 79.7098 77.4694 78.6648 77.5727 77.6301C77.676 76.5953 77.9854 75.5916 78.4826 74.6782C78.9797 73.7649 79.6546 72.9602 80.4676 72.3116C81.2805 71.6631 82.215 71.1838 83.216 70.902C84.217 70.6202 85.2643 70.5415 86.2962 70.6707C87.3281 70.7999 88.3237 71.1342 89.2243 71.6541C90.125 72.1739 90.9125 72.8688 91.5405 73.6977C92.1685 74.5265 92.6243 75.4727 92.881 76.4805L98.623 89.3915C98.7869 89.76 98.8695 90.1595 98.8651 90.5628C98.8607 90.9661 98.7694 91.3637 98.5974 91.7285C98.4255 92.0933 98.1768 92.4168 97.8686 92.6768C97.5603 92.9369 97.1996 93.1274 96.811 93.2355L83.163 97.0335C82.7743 97.1425 82.3666 97.1661 81.9678 97.1027C81.5691 97.0394 81.1888 96.8906 80.853 96.6665Z" fill="#8575A9" style="fill:#8575A9;fill:color(display-p3 0.5216 0.4588 0.6627);fill-opacity:1;"/>
<path d="M61.984 60.7544C60.6296 60.7794 59.2837 60.5356 58.024 60.0374C57.47 59.8234 56.894 59.6484 56.341 59.4374C51.455 57.5494 48.241 52.3464 48.121 47.1094C48.1451 44.4828 48.7518 41.8944 49.8973 39.5307C51.0427 37.1669 52.6984 35.0868 54.745 33.4404C58.8892 30.1722 63.9412 28.2629 69.211 27.9734C74.837 27.5454 81.172 28.9734 84.311 33.6574C84.7822 34.2498 85.1108 34.9427 85.2713 35.6824C85.4319 36.4222 85.4201 37.1889 85.237 37.9234C85.0886 38.3779 84.8234 38.7855 84.468 39.1054C83.068 40.3544 81.668 39.4154 80.233 39.3324C79.245 39.3573 78.2903 39.6943 77.5055 40.2949C76.7207 40.8956 76.1461 41.7292 75.864 42.6764C75.342 44.5902 75.3966 46.6155 76.021 48.4984C76.4116 49.6433 76.6579 50.8325 76.754 52.0384C76.7955 52.643 76.6819 53.2483 76.4239 53.7968C76.166 54.3452 75.7722 54.8187 75.28 55.1724C74.051 55.9154 72.436 55.4854 71.207 54.7434C70.0606 53.8796 68.8501 53.1044 67.586 52.4244C66.257 51.8784 64.473 51.9994 63.699 53.2104C63.4534 53.6509 63.2872 54.1312 63.208 54.6294C62.515 57.7874 62.674 57.6014 61.981 60.7604L61.984 60.7544Z" fill="#2F2E41" style="fill:#2F2E41;fill:color(display-p3 0.1843 0.1804 0.2549);fill-opacity:1;"/>
<path d="M125.164 257.015H14.471C14.3925 257.018 14.3141 257.006 14.2406 256.978C14.1671 256.95 14.0999 256.908 14.0432 256.853C13.9865 256.799 13.9414 256.734 13.9106 256.661C13.8797 256.589 13.8638 256.511 13.8638 256.433C13.8638 256.354 13.8797 256.276 13.9106 256.204C13.9414 256.132 13.9865 256.066 14.0432 256.012C14.0999 255.958 14.1671 255.915 14.2406 255.887C14.3141 255.86 14.3925 255.847 14.471 255.85H125.164C125.243 255.847 125.321 255.86 125.394 255.887C125.468 255.915 125.535 255.958 125.592 256.012C125.648 256.066 125.694 256.132 125.724 256.204C125.755 256.276 125.771 256.354 125.771 256.433C125.771 256.511 125.755 256.589 125.724 256.661C125.694 256.734 125.648 256.799 125.592 256.853C125.535 256.908 125.468 256.95 125.394 256.978C125.321 257.006 125.243 257.018 125.164 257.015Z" fill="#CCCCCC" style="fill:#CCCCCC;fill:color(display-p3 0.8000 0.8000 0.8000);fill-opacity:1;"/>
</g>
<defs>
<filter id="filter0_d_0_1" x="-16.5" y="-38.5" width="444" height="49" filterUnits="userSpaceOnUse" color-interpolation-filters="sRGB">
<feFlood flood-opacity="0" result="BackgroundImageFix"/>
<feColorMatrix in="SourceAlpha" type="matrix" values="0 0 0 0 0 0 0 0 0 0 0 0 0 0 0 0 0 0 127 0" result="hardAlpha"/>
<feOffset dx="6" dy="6"/>
<feGaussianBlur stdDeviation="12"/>
<feColorMatrix type="matrix" values="0 0 0 0 0 0 0 0 0 0 0 0 0 0 0 0 0 0 0.051 0"/>
<feBlend mode="normal" in2="BackgroundImageFix" result="effect1_dropShadow_0_1"/>
<feBlend mode="normal" in="SourceGraphic" in2="effect1_dropShadow_0_1" result="shape"/>
</filter>
<clipPath id="clip0_0_1">
<rect width="1920" height="3799" fill="white" style="fill:white;fill-opacity:1;" transform="translate(-761 -1793)"/>
</clipPath>
</defs>
</svg>
