<svg width="259" height="243" viewBox="0 0 259 243" fill="none" xmlns="http://www.w3.org/2000/svg">
<path d="M241.956 9.114H173.522C172.673 9.114 171.859 8.77684 171.259 8.17673C170.659 7.57661 170.322 6.76268 170.322 5.91399C170.322 5.06529 170.659 4.25136 171.259 3.65125C171.859 3.05113 172.673 2.71399 173.522 2.71399H241.956C242.805 2.71399 243.619 3.05113 244.219 3.65125C244.819 4.25136 245.156 5.06529 245.156 5.91399C245.156 6.76268 244.819 7.57661 244.219 8.17673C243.619 8.77684 242.805 9.114 241.956 9.114Z" fill="#CCCCCC"/>
<path d="M255.163 19.92H173.522C172.673 19.92 171.859 19.5829 171.259 18.9828C170.659 18.3827 170.322 17.5687 170.322 16.72C170.322 15.8713 170.659 15.0574 171.259 14.4573C171.859 13.8572 172.673 13.52 173.522 13.52H255.163C256.012 13.52 256.826 13.8572 257.426 14.4573C258.026 15.0574 258.363 15.8713 258.363 16.72C258.363 17.5687 258.026 18.3827 257.426 18.9828C256.826 19.5829 256.012 19.92 255.163 19.92Z" fill="#CCCCCC"/>
<path d="M241.956 57.539H173.522C172.673 57.539 171.859 57.2019 171.259 56.6018C170.659 56.0017 170.322 55.1877 170.322 54.339C170.322 53.4903 170.659 52.6764 171.259 52.0763C171.859 51.4762 172.673 51.139 173.522 51.139H241.956C242.805 51.139 243.619 51.4762 244.219 52.0763C244.819 52.6764 245.156 53.4903 245.156 54.339C245.156 55.1877 244.819 56.0017 244.219 56.6018C243.619 57.2019 242.805 57.539 241.956 57.539Z" fill="#CCCCCC"/>
<path d="M255.163 68.344H173.522C172.673 68.344 171.859 68.0068 171.259 67.4067C170.659 66.8066 170.322 65.9926 170.322 65.144C170.322 64.2953 170.659 63.4813 171.259 62.8812C171.859 62.2811 172.673 61.944 173.522 61.944H255.163C256.012 61.944 256.826 62.2811 257.426 62.8812C258.026 63.4813 258.363 64.2953 258.363 65.144C258.363 65.9926 258.026 66.8066 257.426 67.4067C256.826 68.0068 256.012 68.344 255.163 68.344Z" fill="#CCCCCC"/>
<path d="M241.956 105.963H173.522C172.673 105.963 171.859 105.626 171.259 105.026C170.659 104.426 170.322 103.612 170.322 102.763C170.322 101.914 170.659 101.1 171.259 100.5C171.859 99.9001 172.673 99.563 173.522 99.563H241.956C242.376 99.563 242.792 99.6458 243.181 99.8066C243.569 99.9674 243.922 100.203 244.219 100.5C244.516 100.797 244.752 101.15 244.912 101.538C245.073 101.927 245.156 102.343 245.156 102.763C245.156 103.183 245.073 103.599 244.912 103.988C244.752 104.376 244.516 104.729 244.219 105.026C243.922 105.323 243.569 105.559 243.181 105.719C242.792 105.88 242.376 105.963 241.956 105.963Z" fill="#CCCCCC"/>
<path d="M255.163 116.769H173.522C172.673 116.769 171.859 116.432 171.259 115.832C170.659 115.232 170.322 114.418 170.322 113.569C170.322 112.72 170.659 111.906 171.259 111.306C171.859 110.706 172.673 110.369 173.522 110.369H255.163C256.012 110.369 256.826 110.706 257.426 111.306C258.026 111.906 258.363 112.72 258.363 113.569C258.363 114.418 258.026 115.232 257.426 115.832C256.826 116.432 256.012 116.769 255.163 116.769Z" fill="#CCCCCC"/>
<path d="M145.025 22.632C151.275 22.632 156.341 17.5657 156.341 11.316C156.341 5.06635 151.275 0 145.025 0C138.775 0 133.709 5.06635 133.709 11.316C133.709 17.5657 138.775 22.632 145.025 22.632Z" fill="#8575A9"/>
<path d="M143.904 15.633C143.649 15.6333 143.402 15.5508 143.198 15.398L143.185 15.389L140.526 13.355C140.4 13.2615 140.294 13.144 140.214 13.0092C140.134 12.8744 140.082 12.725 140.06 12.5698C140.039 12.4146 140.048 12.2566 140.088 12.1051C140.128 11.9535 140.197 11.8114 140.293 11.687C140.388 11.5626 140.507 11.4584 140.643 11.3805C140.779 11.3026 140.929 11.2525 141.085 11.2331C141.24 11.2138 141.398 11.2255 141.549 11.2677C141.7 11.3099 141.841 11.3817 141.964 11.479L143.689 12.8L147.759 7.48996C147.853 7.36683 147.971 7.26348 148.105 7.18584C148.24 7.10819 148.388 7.05775 148.542 7.03742C148.695 7.01708 148.852 7.02724 149.002 7.06731C149.151 7.10738 149.292 7.17659 149.415 7.27097C149.664 7.46184 149.827 7.74351 149.868 8.05417C149.909 8.36483 149.825 8.67908 149.635 8.92796L144.847 15.171C144.736 15.3148 144.594 15.4313 144.431 15.5112C144.268 15.5912 144.089 15.6325 143.907 15.632L143.904 15.633Z" fill="white"/>
<path d="M146.191 71.056C152.441 71.056 157.507 65.9896 157.507 59.74C157.507 53.4903 152.441 48.424 146.191 48.424C139.941 48.424 134.875 53.4903 134.875 59.74C134.875 65.9896 139.941 71.056 146.191 71.056Z" fill="#CCCCCC"/>
<path d="M145.025 119.481C151.275 119.481 156.341 114.415 156.341 108.165C156.341 101.915 151.275 96.849 145.025 96.849C138.775 96.849 133.709 101.915 133.709 108.165C133.709 114.415 138.775 119.481 145.025 119.481Z" fill="#CCCCCC"/>
<path d="M116.638 120.12L27.707 138.865C25.1371 139.404 22.4583 138.901 20.2585 137.467C18.0587 136.034 16.5175 133.786 15.973 131.217L0.712973 58.817C0.174168 56.247 0.676795 53.5683 2.11059 51.3685C3.54438 49.1687 5.79225 47.6275 8.36098 47.083L97.292 28.338C99.8619 27.7992 102.541 28.3018 104.74 29.7356C106.94 31.1694 108.481 33.4172 109.026 35.986L124.286 108.386C124.825 110.956 124.322 113.635 122.888 115.834C121.455 118.034 119.207 119.575 116.638 120.12Z" fill="white"/>
<path d="M116.638 120.12L27.707 138.865C25.1371 139.404 22.4583 138.901 20.2585 137.467C18.0587 136.034 16.5175 133.786 15.973 131.217L0.712973 58.817C0.174168 56.247 0.676795 53.5683 2.11059 51.3685C3.54438 49.1687 5.79225 47.6275 8.36098 47.083L97.292 28.338C99.8619 27.7992 102.541 28.3018 104.74 29.7356C106.94 31.1694 108.481 33.4172 109.026 35.986L124.286 108.386C124.825 110.956 124.322 113.635 122.888 115.834C121.455 118.034 119.207 119.575 116.638 120.12ZM8.60097 48.22C6.33447 48.7004 4.35105 50.0602 3.08582 52.001C1.82059 53.9419 1.37687 56.3054 1.85198 58.573L17.112 130.973C17.5924 133.239 18.9522 135.223 20.893 136.488C22.8339 137.753 25.1974 138.197 27.465 137.722L116.396 118.977C118.662 118.497 120.646 117.137 121.911 115.196C123.176 113.255 123.62 110.892 123.145 108.624L107.885 36.224C107.405 33.9575 106.045 31.9741 104.104 30.7088C102.163 29.4436 99.7996 28.9999 97.532 29.475L8.60097 48.22Z" fill="#3F3D56"/>
<path d="M91.767 52.2101L46.885 61.6701C46.4924 61.7611 46.0798 61.6997 45.7306 61.4984C45.3815 61.297 45.1218 60.9705 45.004 60.5851C44.9496 60.3837 44.9369 60.1734 44.9666 59.9669C44.9963 59.7604 45.0678 59.5622 45.1767 59.3843C45.2857 59.2065 45.4298 59.0527 45.6002 58.9325C45.7707 58.8122 45.9639 58.728 46.168 58.6851L91.855 49.0551C93.639 50.0601 93.075 51.9301 91.766 52.2061L91.767 52.2101Z" fill="#CCCCCC"/>
<path d="M93.4259 60.083L48.5439 69.543C48.1513 69.6341 47.7387 69.5727 47.3896 69.3713C47.0404 69.1699 46.7807 68.8435 46.6629 68.458C46.6085 68.2566 46.5958 68.0463 46.6255 67.8398C46.6552 67.6334 46.7267 67.4351 46.8357 67.2573C46.9446 67.0794 47.0887 66.9256 47.2592 66.8054C47.4296 66.6852 47.6228 66.601 47.8269 66.558L93.5139 56.928C95.2979 57.933 94.734 59.803 93.425 60.079L93.4259 60.083Z" fill="#CCCCCC"/>
<path d="M39.786 76.071L26.086 78.958C25.6387 79.0516 25.1726 78.964 24.7899 78.7145C24.4071 78.465 24.1388 78.0739 24.044 77.627L20.637 61.462C20.5433 61.0147 20.6309 60.5486 20.8804 60.1659C21.1299 59.7831 21.521 59.5149 21.968 59.42L35.668 56.533C36.1152 56.4393 36.5813 56.5269 36.9641 56.7764C37.3469 57.0259 37.6151 57.417 37.71 57.864L41.117 74.028C41.2106 74.4752 41.123 74.9413 40.8735 75.3241C40.624 75.7068 40.2329 75.9751 39.786 76.07V76.071Z" fill="#CCCCCC"/>
<path d="M96.693 76.2289L28.193 90.668C27.8003 90.759 27.3878 90.6976 27.0386 90.4962C26.6895 90.2948 26.4298 89.9684 26.312 89.5829C26.2576 89.3816 26.2448 89.1712 26.2745 88.9648C26.3042 88.7583 26.3757 88.5601 26.4847 88.3822C26.5937 88.2044 26.7378 88.0506 26.9082 87.9304C27.0787 87.8101 27.2719 87.7259 27.476 87.683L96.776 73.075C98.56 74.08 97.996 75.95 96.687 76.226L96.693 76.2289Z" fill="#CCCCCC"/>
<path d="M98.353 84.108L29.853 98.546C29.4604 98.637 29.0478 98.5757 28.6986 98.3743C28.3495 98.1729 28.0898 97.8465 27.972 97.461C27.9176 97.2596 27.9049 97.0493 27.9346 96.8428C27.9643 96.6363 28.0358 96.4381 28.1447 96.2603C28.2537 96.0824 28.3978 95.9286 28.5683 95.8084C28.7387 95.6882 28.9319 95.604 29.136 95.561L98.436 80.953C100.22 81.958 99.656 83.828 98.347 84.104L98.353 84.108Z" fill="#CCCCCC"/>
<path d="M100.012 91.9701L31.512 106.408C31.1193 106.499 30.7067 106.438 30.3576 106.236C30.0084 106.035 29.7487 105.709 29.631 105.323C29.5766 105.122 29.5638 104.911 29.5935 104.705C29.6232 104.498 29.6947 104.3 29.8037 104.122C29.9126 103.944 30.0568 103.791 30.2272 103.67C30.3977 103.55 30.5909 103.466 30.795 103.423L100.095 88.8151C101.879 89.8201 101.315 91.6901 100.006 91.9661L100.012 91.9701Z" fill="#CCCCCC"/>
<path d="M101.672 99.849L33.172 114.287C32.7793 114.378 32.3668 114.317 32.0176 114.115C31.6685 113.914 31.4088 113.587 31.291 113.202C31.2364 113.001 31.2236 112.79 31.2532 112.584C31.2828 112.377 31.3544 112.179 31.4633 112.001C31.5723 111.823 31.7165 111.669 31.887 111.549C32.0575 111.429 32.2508 111.345 32.455 111.302L101.755 96.694C103.539 97.699 102.975 99.569 101.666 99.845L101.672 99.849Z" fill="#CCCCCC"/>
<path d="M103.33 107.719L34.83 122.157C34.4373 122.248 34.0247 122.187 33.6756 121.985C33.3264 121.784 33.0667 121.457 32.9489 121.072C32.8945 120.871 32.8818 120.66 32.9115 120.454C32.9412 120.247 33.0127 120.049 33.1217 119.871C33.2306 119.693 33.3747 119.54 33.5452 119.419C33.7156 119.299 33.9088 119.215 34.1129 119.172L103.413 104.564C105.197 105.569 104.633 107.439 103.324 107.715L103.33 107.719Z" fill="#CCCCCC"/>
<path d="M115.422 71.676C115.266 71.9584 115.132 72.2527 115.022 72.5561L86.9799 79.515L82.102 74.468L73.5229 80.835L81.291 90.609C81.9185 91.3987 82.7852 91.9635 83.7611 92.2187C84.7369 92.4738 85.7692 92.4055 86.7029 92.024L117.132 79.59C118.132 80.3263 119.333 80.7406 120.574 80.7779C121.816 80.8151 123.039 80.4734 124.082 79.7984C125.124 79.1234 125.937 78.147 126.411 76.999C126.885 75.8511 126.998 74.586 126.735 73.372C126.473 72.1581 125.847 71.0528 124.941 70.2033C124.035 69.3537 122.892 68.8001 121.664 68.6161C120.435 68.4321 119.18 68.6264 118.065 69.1732C116.95 69.72 116.028 70.5933 115.421 71.6771L115.422 71.676Z" fill="#A0616A"/>
<path d="M19.704 133.602C20.5781 133.332 21.3825 132.874 22.0604 132.259C22.7382 131.645 23.2731 130.889 23.6274 130.045C23.9817 129.202 24.1467 128.291 24.1109 127.377C24.075 126.462 23.8392 125.567 23.42 124.754L42.72 71.116L29.32 68.741L14.565 122.212C13.2445 123.006 12.2614 124.258 11.8022 125.729C11.3431 127.2 11.4398 128.788 12.074 130.193C12.7082 131.597 13.8358 132.72 15.2429 133.349C16.65 133.977 18.2388 134.067 19.708 133.602H19.704Z" fill="#A0616A"/>
<path d="M40.267 80.637L27.035 75.559C26.6582 75.4146 26.3171 75.1906 26.0347 74.9024C25.7524 74.6141 25.5355 74.2684 25.399 73.8887C25.2624 73.5091 25.2093 73.1044 25.2433 72.7024C25.2773 72.3003 25.3976 71.9103 25.596 71.559L32.538 59.251C32.9017 58.2886 33.4523 57.4076 34.1581 56.6591C34.8639 55.9105 35.711 55.3091 36.6504 54.8895C37.5898 54.4699 38.603 54.2405 39.6315 54.2144C40.66 54.1884 41.6835 54.3662 42.643 54.7377C43.6024 55.1091 44.4788 55.6669 45.2217 56.3788C45.9645 57.0907 46.559 57.9426 46.9709 58.8853C47.3829 59.8281 47.604 60.8432 47.6217 61.8719C47.6394 62.9006 47.4533 63.9226 47.074 64.879L44.011 78.626C43.9233 79.0196 43.7517 79.3896 43.508 79.7108C43.2644 80.0321 42.9543 80.2971 42.599 80.4878C42.2437 80.6784 41.8515 80.7903 41.4491 80.8157C41.0466 80.8411 40.6435 80.7795 40.267 80.635V80.637Z" fill="#8575A9"/>
<path d="M70.1339 234.305H77.2769L80.6769 206.755H70.1329L70.1339 234.305Z" fill="#A0616A"/>
<path d="M68.311 231.973H82.378C84.7554 231.973 87.0354 232.917 88.7165 234.599C90.3976 236.28 91.342 238.56 91.342 240.937V241.228H68.312L68.311 231.973Z" fill="#2F2E41"/>
<path d="M29.934 234.305H37.077L40.477 206.755H29.933L29.934 234.305Z" fill="#A0616A"/>
<path d="M28.1119 231.973H42.1789C44.5563 231.973 46.8363 232.917 48.5174 234.599C50.1985 236.28 51.1429 238.56 51.1429 240.937V241.228H28.1129L28.1119 231.973Z" fill="#2F2E41"/>
<path d="M37.422 223.217H28.38C28.0252 223.217 27.6742 223.145 27.348 223.005C27.0219 222.866 26.7275 222.661 26.4827 222.405C26.2378 222.148 26.0476 221.844 25.9236 221.512C25.7995 221.179 25.7442 220.825 25.761 220.471L30.054 128.227L30.325 128.22L73.973 127.082L82.514 219.382C82.5468 219.728 82.5105 220.077 82.4072 220.409C82.304 220.74 82.1358 221.048 81.9125 221.315C81.6892 221.581 81.4152 221.8 81.1064 221.959C80.7977 222.119 80.4603 222.215 80.114 222.243L69.962 223.055C69.3242 223.106 68.6899 222.921 68.1785 222.537C67.6671 222.153 67.3137 221.595 67.185 220.968L54.2 155.26C54.1648 155.06 54.0591 154.88 53.902 154.751C53.7449 154.623 53.5469 154.555 53.344 154.56C53.1406 154.556 52.9425 154.625 52.7857 154.754C52.629 154.884 52.524 155.066 52.49 155.266L39.998 221.099C39.8802 221.696 39.559 222.233 39.0892 222.619C38.6194 223.005 38.0302 223.217 37.422 223.217Z" fill="#2F2E41"/>
<path d="M53.9789 45.957C61.8816 45.957 68.2879 39.5506 68.2879 31.648C68.2879 23.7453 61.8816 17.339 53.9789 17.339C46.0763 17.339 39.6699 23.7453 39.6699 31.648C39.6699 39.5506 46.0763 45.957 53.9789 45.957Z" fill="#A0616A"/>
<path d="M49.181 139.037C42.361 139.037 35.356 137.244 29.549 131.944C29.24 131.664 29.0014 131.315 28.8527 130.925C28.7039 130.535 28.6492 130.116 28.693 129.701C29.315 124.116 32.33 95.281 30.632 76.019C30.3011 72.4216 30.8108 68.7966 32.1207 65.4298C33.4306 62.0631 35.5049 59.0469 38.18 56.619C40.8086 54.1964 43.9643 52.4177 47.3981 51.4235C50.8318 50.4293 54.4496 50.2466 57.966 50.89C58.144 50.922 58.322 50.955 58.501 50.99C64.075 52.114 69.0413 55.2477 72.4552 59.795C75.869 64.3423 77.4922 69.9858 77.016 75.652C75.702 92.932 74.524 116.305 76.373 129.523C76.4494 130.064 76.3548 130.615 76.1025 131.099C75.8502 131.583 75.4529 131.976 74.966 132.223C70.757 134.347 60.211 139.037 49.181 139.037Z" fill="#8575A9"/>
<path d="M67.853 81.666C67.5172 81.4428 67.2335 81.1498 67.0214 80.8068C66.8093 80.4639 66.6737 80.0792 66.624 79.679L64.881 65.703C64.5743 64.7093 64.4694 63.6644 64.5727 62.6296C64.676 61.5948 64.9854 60.5911 65.4826 59.6778C65.9797 58.7644 66.6546 57.9597 67.4676 57.3111C68.2805 56.6626 69.215 56.1833 70.216 55.9015C71.217 55.6197 72.2643 55.5411 73.2962 55.6702C74.3281 55.7994 75.3237 56.1337 76.2243 56.6536C77.125 57.1734 77.9125 57.8683 78.5405 58.6972C79.1685 59.5261 79.6243 60.4722 79.881 61.48L85.623 74.391C85.7869 74.7595 85.8695 75.159 85.8651 75.5623C85.8607 75.9656 85.7694 76.3632 85.5974 76.728C85.4255 77.0928 85.1768 77.4163 84.8686 77.6763C84.5603 77.9364 84.1996 78.127 83.811 78.235L70.163 82.033C69.7743 82.142 69.3666 82.1656 68.9678 82.1023C68.5691 82.0389 68.1888 81.8901 67.853 81.666Z" fill="#8575A9"/>
<path d="M48.984 45.754C47.6296 45.779 46.2837 45.5353 45.024 45.037C44.47 44.823 43.894 44.648 43.341 44.437C38.455 42.549 35.241 37.346 35.121 32.109C35.1451 29.4825 35.7518 26.894 36.8973 24.5303C38.0427 22.1666 39.6984 20.0865 41.745 18.44C45.8892 15.1718 50.9412 13.2626 56.211 12.973C61.837 12.545 68.172 13.973 71.311 18.657C71.7822 19.2494 72.1108 19.9423 72.2713 20.6821C72.4319 21.4218 72.4201 22.1885 72.237 22.923C72.0886 23.3775 71.8234 23.7851 71.468 24.105C70.068 25.354 68.668 24.415 67.233 24.332C66.245 24.3569 65.2903 24.6939 64.5055 25.2946C63.7207 25.8952 63.1461 26.7288 62.864 27.676C62.342 29.5898 62.3966 31.6151 63.021 33.498C63.4116 34.6429 63.6579 35.8321 63.754 37.038C63.7955 37.6427 63.6819 38.2479 63.4239 38.7964C63.166 39.3449 62.7722 39.8184 62.28 40.172C61.051 40.915 59.436 40.485 58.207 39.743C57.0606 38.8792 55.8501 38.104 54.586 37.424C53.257 36.878 51.473 36.999 50.699 38.21C50.4534 38.6505 50.2872 39.1309 50.208 39.629C49.515 42.787 49.674 42.601 48.981 45.76L48.984 45.754Z" fill="#2F2E41"/>
<path d="M112.164 242.015H1.47092C1.39239 242.018 1.31402 242.006 1.24051 241.978C1.167 241.95 1.09986 241.908 1.04315 241.853C0.986439 241.799 0.941318 241.733 0.910492 241.661C0.879665 241.589 0.86377 241.511 0.86377 241.433C0.86377 241.354 0.879665 241.276 0.910492 241.204C0.941318 241.132 0.986439 241.066 1.04315 241.012C1.09986 240.957 1.167 240.915 1.24051 240.887C1.31402 240.859 1.39239 240.847 1.47092 240.85H112.164C112.242 240.847 112.321 240.859 112.394 240.887C112.468 240.915 112.535 240.957 112.592 241.012C112.648 241.066 112.694 241.132 112.724 241.204C112.755 241.276 112.771 241.354 112.771 241.433C112.771 241.511 112.755 241.589 112.724 241.661C112.694 241.733 112.648 241.799 112.592 241.853C112.535 241.908 112.468 241.95 112.394 241.978C112.321 242.006 112.242 242.018 112.164 242.015Z" fill="#CCCCCC"/>
</svg>
