<svg width="277" height="229" viewBox="0 0 277 229" fill="none" xmlns="http://www.w3.org/2000/svg">
<path d="M255.013 202.84C254.789 211.183 253.392 219.453 250.861 227.406C250.805 227.591 250.743 227.772 250.682 227.957H235.19C235.206 227.791 235.223 227.607 235.239 227.406C236.272 215.531 230.371 144.115 223.25 131.755C223.874 132.758 256.215 165.107 255.013 202.84Z" fill="#F0F0F0"/>
<path d="M253.851 227.406C253.721 227.591 253.587 227.775 253.451 227.957H241.826C241.914 227.8 242.016 227.615 242.135 227.406C244.055 223.941 249.735 213.58 255.013 202.84C260.68 191.298 265.883 179.318 265.445 174.982C265.58 175.96 269.503 205.771 253.851 227.406Z" fill="#F0F0F0"/>
<path d="M24.906 121.47H2.76199C2.16224 121.469 1.58721 121.231 1.16312 120.807C0.739024 120.383 0.50053 119.808 0.5 119.208V59.73C0.50053 59.1303 0.739024 58.5552 1.16312 58.1311C1.58721 57.707 2.16224 57.4685 2.76199 57.468H24.906C25.5058 57.4685 26.0808 57.707 26.5049 58.1311C26.929 58.5552 27.1675 59.1303 27.168 59.73V119.208C27.1675 119.808 26.929 120.383 26.5049 120.807C26.0808 121.231 25.5058 121.469 24.906 121.47Z" fill="#E6E6E6"/>
<path d="M65.288 121.471H43.144C42.5442 121.47 41.9692 121.232 41.5451 120.808C41.121 120.384 40.8825 119.809 40.882 119.209V88.68C40.8825 88.0802 41.121 87.5052 41.5451 87.0811C41.9692 86.657 42.5442 86.4185 43.144 86.418H65.288C65.8877 86.4185 66.4627 86.657 66.8868 87.0811C67.3109 87.5052 67.5495 88.0802 67.55 88.68V119.21C67.5492 119.81 67.3106 120.384 66.8865 120.808C66.4625 121.232 65.8875 121.47 65.288 121.471Z" fill="#E6E6E6"/>
<path d="M105.67 121.471H83.5259C82.94 121.484 82.3729 121.263 81.9489 120.859C81.5249 120.454 81.2786 119.898 81.2639 119.312V48.1999C81.2786 47.614 81.5249 47.0578 81.9489 46.6531C82.3729 46.2484 82.94 46.0283 83.5259 46.0409H105.67C106.256 46.0283 106.823 46.2484 107.247 46.6531C107.671 47.0578 107.917 47.614 107.932 48.1999V119.312C107.917 119.898 107.671 120.454 107.247 120.859C106.823 121.263 106.256 121.484 105.67 121.471Z" fill="#E6E6E6"/>
<path d="M146.053 121.472H123.909C123.309 121.471 122.734 121.233 122.31 120.809C121.886 120.385 121.648 119.81 121.647 119.21V27.73C121.648 27.1303 121.886 26.5552 122.31 26.1311C122.734 25.707 123.309 25.4685 123.909 25.468H146.053C146.653 25.4685 147.228 25.707 147.652 26.1311C148.076 26.5552 148.314 27.1303 148.315 27.73V119.209C148.315 119.809 148.076 120.384 147.652 120.809C147.228 121.233 146.653 121.471 146.053 121.472Z" fill="#F2F2F2"/>
<path d="M191.468 221.054H184.59L181.318 194.523H191.47L191.468 221.054Z" fill="#FFB6B6"/>
<path d="M193.223 227.721H171.044V227.443C171.044 225.153 171.953 222.958 173.572 221.339C175.191 219.72 177.387 218.81 179.676 218.81H193.223V227.721Z" fill="#2F2E41"/>
<path d="M166.886 108.757L170.791 170.976L183.902 214.776L194.06 215.512L188.96 162.137L191.197 126.69C191.197 126.69 201.797 118.79 195.937 109.273L166.886 108.757Z" fill="#2F2E41"/>
<path d="M195.957 221.054H189.078L185.806 194.523H195.958L195.957 221.054Z" fill="#FFB6B6"/>
<path d="M197.711 227.721H175.532V227.443C175.532 225.153 176.441 222.958 178.06 221.339C179.679 219.72 181.875 218.81 184.164 218.81H197.711V227.721Z" fill="#2F2E41"/>
<path d="M171.375 108.757L175.28 170.976L188.391 214.776L198.549 215.512L193.449 162.137L195.686 126.69C195.686 126.69 206.286 118.79 200.426 109.273L171.375 108.757Z" fill="#2F2E41"/>
<path d="M192.543 118.393C180.829 118.393 167.043 111.235 166.243 110.814L166.021 110.697L192.905 42.113L206.219 35.823C207.244 35.3387 208.38 35.1368 209.509 35.2381C210.639 35.3394 211.72 35.7402 212.643 36.3992C213.566 37.0582 214.296 37.9515 214.758 38.9869C215.22 40.0222 215.398 41.1622 215.272 42.289L209.988 89.689L204.473 114.238L204.414 114.296C201.372 117.302 197.115 118.393 192.543 118.393Z" fill="#8575A9"/>
<path d="M149.584 72.99C150.281 72.5483 151.065 72.2646 151.884 72.1591C152.702 72.0535 153.533 72.1286 154.319 72.3791C155.105 72.6295 155.826 73.0492 156.432 73.6087C157.038 74.1681 157.514 74.8537 157.827 75.617L177.846 74.523L172.593 83.523L154.388 83.182C153.071 83.6203 151.639 83.5607 150.364 83.0143C149.088 82.468 148.057 81.4729 147.465 80.2174C146.874 78.9619 146.763 77.5331 147.155 76.2016C147.546 74.8701 148.411 73.7281 149.588 72.992L149.584 72.99Z" fill="#FFB6B6"/>
<path d="M189.091 87.075L169.029 86.563L169.288 73.292L178.775 70.272L194.336 48.447C195.114 47.3513 196.104 46.4229 197.248 45.7169C198.391 45.0109 199.665 44.5417 200.993 44.3369C202.321 44.1322 203.677 44.1962 204.979 44.5251C206.282 44.854 207.506 45.4411 208.578 46.2516C209.65 47.0621 210.548 48.0796 211.219 49.2437C211.891 50.4078 212.322 51.6949 212.487 53.0285C212.651 54.3622 212.547 55.7154 212.179 57.0079C211.811 58.3005 211.187 59.506 210.345 60.553L189.091 87.075Z" fill="#8575A9"/>
<path d="M200.708 33.2949C208.07 33.2949 214.039 27.3264 214.039 19.9639C214.039 12.6014 208.07 6.63293 200.708 6.63293C193.345 6.63293 187.377 12.6014 187.377 19.9639C187.377 27.3264 193.345 33.2949 200.708 33.2949Z" fill="#FFB6B6"/>
<path d="M183.842 8.85499C185.187 7.47572 186.936 6.55842 188.835 6.23497C190.686 5.83497 192.718 5.71299 194.199 4.55199C195.882 3.21099 196.623 0.663969 198.687 0.0969688C199.585 -0.0835452 200.516 -0.0097639 201.374 0.309982C204.673 1.30528 207.603 3.2582 209.79 5.92097C210.306 6.6842 210.963 7.34141 211.726 7.85698C212.182 8.05024 212.628 8.26755 213.061 8.50798C213.536 8.88301 213.91 9.37077 214.149 9.92699C215.637 12.9321 215.98 16.3763 215.114 19.616C214.598 21.529 213.666 23.302 213.114 25.227C212.562 27.152 210.021 30.812 209.427 29.903C208.739 29.0504 208.172 28.1064 207.744 27.098C207.109 25.034 207.683 22.957 206.068 21.524C205.068 20.638 203.263 20.043 202.584 21.187C202.315 21.63 202.331 22.187 202.102 22.651C201.824 23.0716 201.392 23.3661 200.898 23.471C200.405 23.5759 199.89 23.4829 199.465 23.212C198.627 22.6333 198.038 21.7598 197.816 20.766C196.509 16.345 194.281 13.566 189.552 15.453C187.79 16.16 185.714 16.637 184.02 15.425C181.789 13.831 182.243 10.673 183.842 8.85499Z" fill="#2F2E41"/>
<path d="M153.908 128.764H131.764C131.164 128.763 130.589 128.525 130.165 128.101C129.741 127.677 129.502 127.102 129.502 126.502V35.023C129.502 34.4233 129.741 33.8482 130.165 33.4241C130.589 33 131.164 32.7615 131.764 32.761H153.908C154.508 32.7615 155.083 33 155.507 33.4241C155.931 33.8482 156.169 34.4233 156.17 35.023V126.503C156.169 127.103 155.931 127.677 155.507 128.101C155.082 128.525 154.508 128.763 153.908 128.764Z" fill="#8575A9"/>
<path d="M149.024 80.845C149.721 80.4033 150.505 80.1196 151.324 80.014C152.142 79.9085 152.973 79.9836 153.759 80.234C154.545 80.4845 155.266 80.9042 155.872 81.4637C156.478 82.0231 156.954 82.7086 157.267 83.472L177.286 82.378L172.033 91.378L153.827 91.037C152.51 91.4753 151.078 91.4157 149.803 90.8693C148.527 90.323 147.496 89.3279 146.904 88.0724C146.313 86.8169 146.202 85.3881 146.594 84.0566C146.985 82.725 147.85 81.5831 149.027 80.847L149.024 80.845Z" fill="#FFB6B6"/>
<path d="M188.531 94.929L168.469 94.416L168.728 81.145L178.215 78.125L193.776 56.3C194.56 55.2183 195.551 54.3038 196.693 53.6102C197.834 52.9165 199.103 52.4577 200.424 52.2604C201.745 52.0632 203.092 52.1316 204.386 52.4616C205.68 52.7916 206.896 53.3765 207.961 54.1822C209.027 54.9879 209.92 55.998 210.591 57.1535C211.261 58.309 211.693 59.5866 211.863 60.9115C212.033 62.2363 211.937 63.5817 211.581 64.869C211.224 66.1562 210.614 67.3594 209.787 68.408L188.531 94.929Z" fill="#7F6FA2"/>
<path d="M276.181 228.518H62.418C62.2692 228.518 62.1266 228.459 62.0214 228.354C61.9162 228.248 61.8571 228.106 61.8571 227.957C61.8571 227.808 61.9162 227.666 62.0214 227.56C62.1266 227.455 62.2692 227.396 62.418 227.396H276.181C276.33 227.396 276.473 227.455 276.578 227.56C276.683 227.666 276.742 227.808 276.742 227.957C276.742 228.106 276.683 228.248 276.578 228.354C276.473 228.459 276.33 228.518 276.181 228.518Z" fill="#CACACA"/>
</svg>
