<svg width="51" height="50" viewBox="0 0 51 50" fill="none" xmlns="http://www.w3.org/2000/svg">
<path fill-rule="evenodd" clip-rule="evenodd" d="M5.20001 0.850066C4.19184 1.09475 3.27146 1.61468 2.54151 2.35187C1.81156 3.08906 1.30074 4.01453 1.06602 5.02506C0.866016 5.97506 0.866016 44.6891 1.06602 45.6391C1.30093 46.6573 1.81729 47.589 2.55619 48.3279C3.2951 49.0668 4.2268 49.5832 5.24502 49.8181C6.19502 50.0181 44.909 50.0181 45.859 49.8181C46.8772 49.5832 47.8089 49.0668 48.5478 48.3279C49.2867 47.589 49.8031 46.6573 50.038 45.6391C50.238 44.6891 50.238 5.97506 50.038 5.02506C49.8033 4.00666 49.287 3.07475 48.5481 2.33566C47.8092 1.59657 46.8774 1.08006 45.859 0.845065C44.941 0.650065 6.09501 0.655065 5.20001 0.845065M14.389 9.09507C15.1384 9.31516 15.8088 9.74583 16.3206 10.3359C16.8323 10.9259 17.1639 11.6505 17.2758 12.4235C17.3877 13.1965 17.2753 13.9853 16.9519 14.6963C16.6285 15.4072 16.1077 16.0104 15.4515 16.434C14.7953 16.8576 14.0313 17.0838 13.2503 17.0858C12.4692 17.0878 11.704 16.8654 11.0457 16.4452C10.3873 16.0249 9.8635 15.4245 9.53649 14.7152C9.20948 14.0059 9.09304 13.2176 9.20101 12.4441C9.28546 11.8653 9.49275 11.3113 9.80898 10.8193C10.1252 10.3272 10.5431 9.90857 11.0344 9.59136C11.5258 9.27415 12.0794 9.06574 12.658 8.98014C13.2366 8.89454 13.8268 8.93373 14.389 9.09507ZM39.014 9.09507C39.7635 9.31499 40.4341 9.74554 40.946 10.3355C41.4579 10.9255 41.7896 11.6501 41.9016 12.4231C42.0137 13.1961 41.9014 13.9851 41.5781 14.6961C41.2547 15.4071 40.734 16.0104 40.0778 16.4341C39.4216 16.8577 38.6575 17.084 37.8764 17.0861C37.0953 17.0881 36.3301 16.8658 35.6717 16.4455C35.0133 16.0252 34.4894 15.4247 34.1624 14.7154C33.8354 14.006 33.719 13.2177 33.827 12.4441C33.9114 11.865 34.1187 11.3106 34.4352 10.8183C34.7516 10.3261 35.1697 9.9072 35.6615 9.58995C36.1532 9.27269 36.7072 9.06438 37.2862 8.97902C37.8651 8.89366 38.4556 8.93323 39.018 9.09507M26.706 21.4091C27.4554 21.6292 28.1258 22.0598 28.6376 22.6499C29.1493 23.2399 29.4809 23.9645 29.5928 24.7375C29.7047 25.5105 29.5923 26.2993 29.2689 27.0103C28.9455 27.7212 28.4247 28.3244 27.7685 28.748C27.1123 29.1716 26.3483 29.3978 25.5673 29.3998C24.7862 29.4018 24.021 29.1794 23.3627 28.7592C22.7043 28.3389 22.1805 27.7385 21.8535 27.0292C21.5265 26.3199 21.41 25.5316 21.518 24.7581C21.6025 24.1793 21.8098 23.6253 22.126 23.1333C22.4422 22.6412 22.86 22.2226 23.3514 21.9054C23.8428 21.5881 24.3964 21.3797 24.975 21.2941C25.5536 21.2085 26.1438 21.2477 26.706 21.4091ZM14.389 33.7221C15.1384 33.9422 15.8088 34.3728 16.3206 34.9629C16.8323 35.5529 17.1639 36.2775 17.2758 37.0505C17.3877 37.8235 17.2753 38.6123 16.9519 39.3233C16.6285 40.0342 16.1077 40.6374 15.4515 41.061C14.7953 41.4846 14.0313 41.7108 13.2503 41.7128C12.4692 41.7148 11.704 41.4924 11.0457 41.0722C10.3873 40.652 9.8635 40.0515 9.53649 39.3422C9.20948 38.6329 9.09304 37.8446 9.20101 37.0711C9.28546 36.4923 9.49275 35.9383 9.80898 35.4463C10.1252 34.9543 10.5431 34.5356 11.0344 34.2184C11.5258 33.9011 12.0794 33.6927 12.658 33.6071C13.2366 33.5215 13.8268 33.5607 14.389 33.7221ZM39.014 33.7221C39.7635 33.942 40.4341 34.3725 40.946 34.9625C41.4579 35.5525 41.7896 36.2771 41.9016 37.0501C42.0137 37.8231 41.9014 38.6121 41.5781 39.3231C41.2547 40.0341 40.734 40.6374 40.0778 41.0611C39.4216 41.4847 38.6575 41.711 37.8764 41.7131C37.0953 41.7151 36.3301 41.4928 35.6717 41.0725C35.0133 40.6522 34.4894 40.0517 34.1624 39.3424C33.8354 38.633 33.719 37.8447 33.827 37.0711C33.9115 36.4924 34.1188 35.9385 34.4349 35.4466C34.7511 34.9546 35.1688 34.536 35.6601 34.2188C36.1514 33.9016 36.7048 33.6932 37.2833 33.6075C37.8618 33.5218 38.4519 33.5609 39.014 33.7221Z" fill="black"/>
</svg>
