<svg width="125" height="125" viewBox="0 0 125 125" fill="none" xmlns="http://www.w3.org/2000/svg">
  <path d="M62.1015 124.298C46.6924 124.286 31.8372 118.551 20.4185 108.204C8.99984 97.8575 1.83192 83.638 0.305729 68.3047C-1.22046 52.9715 3.00391 37.618 12.1591 25.2236C21.3143 12.8293 34.7474 4.27789 49.8518 1.22893C64.9562 -1.82003 80.6546 0.850845 93.9009 8.72327C107.147 16.5957 116.997 29.1082 121.538 43.8329C126.079 58.5575 124.988 74.4441 118.477 88.41C111.966 102.376 100.499 113.425 86.3015 119.413C78.6426 122.643 70.4136 124.305 62.1015 124.298ZM62.1015 5.39814C50.8799 5.39814 39.9104 8.72571 30.5801 14.96C21.2497 21.1944 13.9776 30.0555 9.68331 40.4228C5.38902 50.7902 4.26544 62.1981 6.45465 73.204C8.64386 84.2099 14.0475 94.3194 21.9823 102.254C29.9172 110.189 40.0267 115.593 51.0326 117.782C62.0385 119.971 73.4464 118.848 83.8138 114.553C94.1811 110.259 103.042 102.987 109.277 93.6565C115.511 84.3262 118.838 73.3567 118.838 62.1351C118.838 47.0879 112.86 32.6571 102.22 22.0173C91.5797 11.3775 77.1487 5.40014 62.1015 5.40014V5.39814Z" fill="#E4E4F9"/>
  
</svg>