<svg width="57" height="57" viewBox="0 0 57 57" fill="none" xmlns="http://www.w3.org/2000/svg">
<path fill-rule="evenodd" clip-rule="evenodd" d="M25.769 3.65693V6.78793L25.402 6.85793C25.202 6.89693 24.764 6.96593 24.433 7.01293C15.85 8.21493 8.51405 15.3049 6.72105 24.1199L6.42105 25.5859L3.49605 25.6529L0.572046 25.7149L0.535048 28.3559L0.498047 30.9969H3.44605C5.69005 30.9969 6.40405 31.0369 6.44005 31.1649C6.46505 31.2579 6.58605 31.8979 6.71005 32.5809C7.61442 37.0438 9.89362 41.1115 13.2277 44.213C16.5618 47.3145 20.7835 49.2941 25.3 49.8739L25.7 49.9149L25.736 53.0879L25.772 56.2619H30.972L31.008 53.0309L31.044 49.7999L32.244 49.5519C35.4669 48.8929 38.4969 47.5068 41.1029 45.4993C43.709 43.4918 45.8224 40.9159 47.2821 37.9679C48.3245 35.8691 49.0314 33.6198 49.3771 31.3019L49.4341 31.0019H56.2521L56.2141 28.3599L56.179 25.7149L52.806 25.6789C49.437 25.6429 49.433 25.6429 49.369 25.3449C49.335 25.1799 49.217 24.5909 49.109 24.0449C48.2055 19.7709 46.0443 15.8648 42.9034 12.8286C39.7625 9.79244 35.7853 7.76501 31.483 7.00693L30.983 6.92393V0.523926H25.769V3.65693ZM30.197 11.4769C33.1107 11.8788 35.8713 13.0258 38.2118 14.8071C40.5523 16.5884 42.3934 18.9436 43.557 21.6449C49.314 35.0149 36.645 48.9699 22.733 44.5749C19.8278 43.6405 17.2266 41.9434 15.201 39.6608C13.1754 37.3782 11.7997 34.5937 11.2173 31.5979C10.635 28.6022 10.8675 25.5051 11.8904 22.6298C12.9134 19.7546 14.6894 17.2066 17.033 15.2519C18.854 13.7597 20.9608 12.6555 23.2241 12.0072C25.4873 11.3589 27.8592 11.1801 30.194 11.4819M25.784 17.9149C23.7939 18.2921 21.9523 19.2283 20.475 20.614C18.9976 21.9998 17.9455 23.7777 17.4419 25.7397C16.9383 27.7016 17.004 29.7665 17.6313 31.6925C18.2586 33.6185 19.4216 35.3259 20.984 36.6149C28.7 42.8609 40.064 35.8609 38.007 26.1149C37.381 23.4576 35.773 21.1355 33.5059 19.6146C31.2387 18.0936 28.4803 17.4865 25.784 17.9149Z" fill="black"/>
</svg>
