<svg width="359" height="277" viewBox="0 0 359 277" fill="none" xmlns="http://www.w3.org/2000/svg">
<g filter="url(#filter0_d_163_367)">
<path d="M56.297 112.484C77.724 112.484 95.094 95.1136 95.094 73.6866C95.094 52.2597 77.724 34.8896 56.297 34.8896C34.87 34.8896 17.5 52.2597 17.5 73.6866C17.5 95.1136 34.87 112.484 56.297 112.484Z" fill="#E4E4E4"/>
<path d="M55.831 106.107C73.6869 106.107 88.162 91.6322 88.162 73.7763C88.162 55.9204 73.6869 41.4453 55.831 41.4453C37.9751 41.4453 23.5 55.9204 23.5 73.7763C23.5 91.6322 37.9751 106.107 55.831 106.107Z" fill="#8575A9"/>
<path d="M67.901 72.991L49.483 60.436C49.3568 60.3507 49.2099 60.3013 49.0579 60.2932C48.9058 60.285 48.7545 60.3184 48.6199 60.3897C48.4854 60.461 48.3729 60.5676 48.2943 60.698C48.2157 60.8284 48.1741 60.9778 48.174 61.13V86.244C48.1747 86.396 48.2167 86.5449 48.2955 86.6749C48.3742 86.8049 48.4869 86.911 48.6213 86.982C48.7557 87.0529 48.9068 87.086 49.0586 87.0778C49.2104 87.0695 49.357 87.0201 49.483 86.935L67.901 74.377C68.0134 74.2999 68.1053 74.1967 68.1688 74.0761C68.2323 73.9555 68.2655 73.8213 68.2655 73.685C68.2655 73.5487 68.2323 73.4145 68.1688 73.2939C68.1053 73.1733 68.0134 73.0701 67.901 72.993V72.991Z" fill="white"/>
<path d="M191.692 231.995L184.122 238.964L190.138 228.869C186.691 223.005 182.491 217.618 177.646 212.845C177.646 212.845 161.563 228.253 161.563 240.366C161.563 252.479 168.763 256.707 177.646 256.707C186.529 256.707 193.729 252.478 193.729 240.366C193.629 237.466 192.936 234.617 191.692 231.995Z" fill="#F2F2F2"/>
<path d="M182.175 239.342V239.942C182.14 246.882 180.969 252.296 178.675 256.109C178.642 256.165 178.607 256.218 178.575 256.274L178.318 256.117L178.073 255.963C180.621 251.846 181.522 246.026 181.555 239.973C181.555 239.773 181.561 239.58 181.555 239.382C181.546 236.82 181.39 234.227 181.138 231.709C181.12 231.509 181.1 231.316 181.079 231.118C180.73 227.796 180.228 224.618 179.714 221.864C179.679 221.664 179.64 221.474 179.602 221.282C178.712 216.618 177.802 213.24 177.602 212.492C177.578 212.4 177.564 212.35 177.561 212.338L177.842 212.258L178.126 212.178C178.126 212.19 178.179 212.358 178.262 212.672C178.578 213.842 179.4 217.02 180.207 221.211C180.242 221.4 180.281 221.595 180.316 221.79C180.736 224.027 181.147 226.528 181.472 229.152C181.555 229.811 181.629 230.461 181.694 231.103C181.718 231.303 181.738 231.503 181.756 231.694C182.023 234.413 182.163 236.962 182.175 239.342Z" fill="white"/>
<path d="M180.204 221.206C180.004 221.233 179.804 221.259 179.604 221.28C179.05 221.338 178.494 221.366 177.937 221.366C175.564 221.369 173.221 220.84 171.08 219.817L170.705 220.29C172.957 221.39 175.431 221.96 177.937 221.957C178.531 221.957 179.125 221.925 179.716 221.862C179.916 221.841 180.116 221.815 180.316 221.785C181.95 221.551 183.54 221.07 185.03 220.358L184.658 219.879C183.247 220.539 181.746 220.986 180.204 221.206Z" fill="white"/>
<path d="M181.69 231.099C181.486 231.111 181.282 231.117 181.078 231.117C181.016 231.117 180.951 231.117 180.889 231.117C178.318 231.117 175.785 230.496 173.507 229.305C171.228 228.115 169.271 226.391 167.802 224.281C167.684 224.456 167.566 224.63 167.45 224.807C168.981 226.942 170.998 228.682 173.336 229.881C175.673 231.081 178.262 231.707 180.889 231.707C180.972 231.707 181.054 231.707 181.137 231.707C181.344 231.707 181.548 231.698 181.752 231.689C184.908 231.527 187.95 230.46 190.515 228.615C190.42 228.441 190.326 228.266 190.228 228.092C187.735 229.904 184.768 230.949 181.69 231.099Z" fill="white"/>
<path d="M182.175 239.343C181.968 239.361 181.761 239.373 181.554 239.381C181.347 239.389 181.111 239.396 180.889 239.396C177.435 239.393 174.075 238.27 171.312 236.197C168.549 234.124 166.532 231.212 165.562 227.896C165.429 228.135 165.296 228.372 165.169 228.611C166.261 231.92 168.368 234.8 171.19 236.843C174.012 238.886 177.406 239.987 180.89 239.99C181.112 239.99 181.333 239.99 181.552 239.975C181.771 239.96 181.969 239.957 182.176 239.943C186.355 239.617 190.253 237.714 193.082 234.62C193.02 234.401 192.949 234.186 192.882 233.967C190.148 237.084 186.307 239.012 182.175 239.343Z" fill="white"/>
<path d="M159.326 112.484C180.753 112.484 198.123 95.1136 198.123 73.6866C198.123 52.2597 180.753 34.8896 159.326 34.8896C137.899 34.8896 120.529 52.2597 120.529 73.6866C120.529 95.1136 137.899 112.484 159.326 112.484Z" fill="#E4E4E4"/>
<path d="M159.327 106.017C177.183 106.017 191.658 91.5424 191.658 73.6865C191.658 55.8306 177.183 41.3555 159.327 41.3555C141.471 41.3555 126.996 55.8306 126.996 73.6865C126.996 91.5424 141.471 106.017 159.327 106.017Z" fill="white"/>
<path d="M262.355 112.484C283.782 112.484 301.152 95.1136 301.152 73.6866C301.152 52.2597 283.782 34.8896 262.355 34.8896C240.928 34.8896 223.558 52.2597 223.558 73.6866C223.558 95.1136 240.928 112.484 262.355 112.484Z" fill="#E4E4E4"/>
<path d="M262.355 106.017C280.211 106.017 294.686 91.5424 294.686 73.6865C294.686 55.8306 280.211 41.3555 262.355 41.3555C244.499 41.3555 230.024 55.8306 230.024 73.6865C230.024 91.5424 244.499 106.017 262.355 106.017Z" fill="white"/>
<path d="M142.298 65.8301H116.762V43.6211C116.788 42.2456 117.359 40.9365 118.348 39.9806C119.337 39.0248 120.665 38.4999 122.041 38.5211H130.529C133.595 38.4713 136.555 39.6391 138.761 41.7686C140.968 43.8981 142.239 46.8154 142.298 49.8811V65.8301Z" fill="#2F2E41"/>
<path d="M151.753 251.673H146.905L144.598 232.973H151.753V251.673Z" fill="#FFB6B6"/>
<path d="M152.99 256.371H137.358V256.171C137.358 254.557 137.999 253.01 139.14 251.869C140.281 250.728 141.828 250.087 143.442 250.087H152.99V256.371Z" fill="#2F2E41"/>
<path d="M107.07 251.673H102.222L99.916 232.973H107.071L107.07 251.673Z" fill="#FFB6B6"/>
<path d="M108.307 256.371H92.675V256.171C92.6753 254.557 93.3164 253.01 94.4573 251.869C95.5982 250.728 97.1455 250.087 98.759 250.087H108.307V256.371Z" fill="#2F2E41"/>
<path d="M112.926 101.45L109.763 121.617L139.815 122.017L135.861 102.641L112.926 101.45Z" fill="#FFB6B6"/>
<path d="M110.632 116.693L101.06 142.179L99.874 247.798H107.98L127.356 162.939L145.15 245.588H153.059L147.523 152.658C147.523 152.658 149.156 134.007 140.801 123.001L138.767 117.126L110.632 116.693Z" fill="#2F2E41"/>
<path d="M151.689 136.561C150.852 136.333 150.076 135.924 149.414 135.363C148.753 134.803 148.222 134.104 147.86 133.316C147.498 132.528 147.312 131.67 147.317 130.803C147.322 129.936 147.518 129.081 147.889 128.297L135.104 86.6159L144.504 84.752L156.197 125.609C157.471 126.321 158.439 127.475 158.919 128.853C159.4 130.232 159.358 131.738 158.802 133.087C158.246 134.437 157.215 135.535 155.904 136.176C154.592 136.816 153.092 136.953 151.686 136.562L151.689 136.561Z" fill="#FFB6B6"/>
<path d="M134.769 112.588L114.053 112.188C113.461 112.176 112.889 111.97 112.426 111.601C111.962 111.233 111.632 110.722 111.486 110.148C110.375 105.748 107.932 94.2924 109.228 82.8795C109.492 80.6082 110.221 78.4157 111.369 76.4384C112.518 74.4611 114.061 72.7413 115.902 71.3861C117.744 70.0309 119.845 69.0693 122.074 68.5611C124.303 68.053 126.614 68.0092 128.861 68.4325C131.108 68.8558 133.243 69.7371 135.135 71.0215C137.027 72.306 138.634 73.9661 139.856 75.8985C141.078 77.8309 141.89 79.9942 142.24 82.2537C142.59 84.5133 142.471 86.8208 141.891 89.0325C139.283 98.9325 137.81 106.019 137.513 110.089C137.469 110.678 137.234 111.236 136.843 111.678C136.452 112.12 135.927 112.422 135.348 112.537C135.176 112.572 135.001 112.589 134.825 112.589L134.769 112.588Z" fill="#8575A9"/>
<path d="M134.53 97.1734C134.214 97.007 133.938 96.7745 133.72 96.4917C133.502 96.2088 133.347 95.8823 133.267 95.5344L130.46 83.3824C129.786 81.6807 129.815 79.7809 130.541 78.1009C131.268 76.4208 132.632 75.0982 134.333 74.4239C136.035 73.7496 137.935 73.7788 139.615 74.5053C141.295 75.2317 142.618 76.5958 143.292 78.2974L149.525 89.1474C149.703 89.457 149.812 89.8014 149.845 90.1571C149.878 90.5127 149.833 90.8712 149.715 91.2082C149.597 91.5452 149.407 91.8528 149.16 92.1099C148.912 92.3671 148.611 92.5678 148.279 92.6984L136.597 97.2874C136.265 97.4183 135.908 97.4758 135.551 97.4562C135.194 97.4365 134.846 97.34 134.53 97.1734Z" fill="#8575A9"/>
<path d="M144.58 40.6968C145.539 38.4514 143.89 35.5944 140.896 34.3154C137.902 33.0365 134.697 33.8199 133.738 36.0653C132.779 38.3106 134.428 41.1677 137.422 42.4466C140.416 43.7256 143.621 42.9422 144.58 40.6968Z" fill="#2F2E41"/>
<path d="M135.291 57.3881C138.494 51.5292 136.34 44.1833 130.482 40.9806C124.623 37.7779 117.277 39.9311 114.074 45.79C110.871 51.6489 113.025 58.9948 118.883 62.1975C124.742 65.4002 132.088 63.247 135.291 57.3881Z" fill="#FFB6B6"/>
<path d="M131.316 37.7406H117.486C116.472 37.7274 115.491 38.098 114.739 38.7781C113.987 39.4582 113.52 40.3975 113.431 41.4076C113.395 41.9443 113.47 42.4827 113.651 42.9893C113.832 43.4959 114.115 43.96 114.482 44.3528C114.85 44.7456 115.294 45.0588 115.787 45.2729C116.281 45.487 116.813 45.5975 117.351 45.5976C118.393 45.5976 119.392 46.0115 120.129 46.7484C120.866 47.4852 121.28 48.4845 121.28 49.5266V65.6346H142.888V49.3136C142.888 46.2444 141.669 43.3009 139.499 41.1306C137.329 38.9603 134.385 37.7408 131.316 37.7406Z" fill="#2F2E41"/>
<path d="M199.487 256.962H49.804C49.7524 256.962 49.7013 256.952 49.6536 256.932C49.6059 256.912 49.5626 256.883 49.5261 256.847C49.4896 256.81 49.4607 256.767 49.4409 256.719C49.4212 256.671 49.411 256.62 49.411 256.569C49.411 256.517 49.4212 256.466 49.4409 256.418C49.4607 256.371 49.4896 256.327 49.5261 256.291C49.5626 256.254 49.6059 256.225 49.6536 256.206C49.7013 256.186 49.7524 256.176 49.804 256.176H199.487C199.591 256.176 199.691 256.217 199.765 256.291C199.839 256.365 199.88 256.465 199.88 256.569C199.88 256.673 199.839 256.773 199.765 256.847C199.691 256.92 199.591 256.962 199.487 256.962Z" fill="#CACACA"/>
<path d="M71.843 75.9766C71.9676 76.2557 72.0699 76.5443 72.149 76.8396L98.08 85.6505L103.091 81.2736L110.685 87.9735L102.568 96.5846C101.912 97.2795 101.048 97.7428 100.106 97.9051C99.1641 98.0674 98.1949 97.9198 97.344 97.4846L69.597 83.3116C68.5932 83.9281 67.4254 84.2244 66.249 84.1609C65.0727 84.0975 63.9435 83.6772 63.0118 82.9563C62.0802 82.2353 61.3901 81.2477 61.0335 80.1249C60.677 79.0021 60.6708 77.7973 61.0157 76.6709C61.3607 75.5445 62.0405 74.5498 62.9647 73.8192C63.8889 73.0887 65.0136 72.6569 66.1892 72.5813C67.3649 72.5057 68.5357 72.7899 69.5458 73.396C70.556 74.0022 71.3576 74.9016 71.844 75.9745L71.843 75.9766Z" fill="#FFB6B6"/>
<path d="M98.134 84.2439C98.136 83.8868 98.215 83.5344 98.3657 83.2106C98.5163 82.8868 98.7351 82.5994 99.007 82.3679L108.501 74.2809C109.095 73.5966 109.818 73.036 110.629 72.6312C111.44 72.2263 112.323 71.9851 113.227 71.9214C114.131 71.8576 115.038 71.9726 115.898 72.2596C116.758 72.5467 117.552 73.0003 118.236 73.5944C118.921 74.1886 119.481 74.9117 119.886 75.7225C120.291 76.5334 120.532 77.416 120.596 78.32C120.66 79.224 120.545 80.1318 120.258 80.9914C119.971 81.851 119.517 82.6456 118.923 83.3299L112.162 93.8589C111.969 94.1595 111.714 94.4149 111.413 94.6078C111.112 94.8007 110.774 94.9265 110.42 94.9767C110.067 95.027 109.706 95.0004 109.364 94.8987C109.021 94.7971 108.705 94.6229 108.436 94.3879L98.983 86.1319C98.7139 85.8969 98.4988 85.6065 98.3523 85.2807C98.2057 84.9548 98.1313 84.6012 98.134 84.2439Z" fill="#8575A9"/>
</g>
<defs>
<filter id="filter0_d_163_367" x="-4" y="0" width="367" height="285" filterUnits="userSpaceOnUse" color-interpolation-filters="sRGB">
<feFlood flood-opacity="0" result="BackgroundImageFix"/>
<feColorMatrix in="SourceAlpha" type="matrix" values="0 0 0 0 0 0 0 0 0 0 0 0 0 0 0 0 0 0 127 0" result="hardAlpha"/>
<feOffset dy="4"/>
<feGaussianBlur stdDeviation="2"/>
<feComposite in2="hardAlpha" operator="out"/>
<feColorMatrix type="matrix" values="0 0 0 0 0 0 0 0 0 0 0 0 0 0 0 0 0 0 0.25 0"/>
<feBlend mode="normal" in2="BackgroundImageFix" result="effect1_dropShadow_163_367"/>
<feBlend mode="normal" in="SourceGraphic" in2="effect1_dropShadow_163_367" result="shape"/>
</filter>
</defs>
</svg>
