<svg width="53" height="52" viewBox="0 0 53 52" fill="none" xmlns="http://www.w3.org/2000/svg">
<g opacity="0.2">
<path d="M26.2371 51.498C40.3203 51.498 51.7371 40.0813 51.7371 25.998C51.7371 11.9148 40.3203 0.498047 26.2371 0.498047C12.1538 0.498047 0.737061 11.9148 0.737061 25.998C0.737061 40.0813 12.1538 51.498 26.2371 51.498Z" stroke="#8575A9"/>
</g>
<path d="M28.1112 26.0292L22.4772 31.6642C22.3232 31.819 22.2368 32.0284 22.2368 32.2467C22.2368 32.465 22.3232 32.6744 22.4772 32.8292L22.9702 33.3232C23.1248 33.4774 23.3343 33.564 23.5527 33.564C23.771 33.564 23.9805 33.4774 24.1352 33.3232L30.8442 26.6142C30.9984 26.4586 31.085 26.2483 31.085 26.0292C31.085 25.8101 30.9984 25.5998 30.8442 25.4442L24.1442 18.7442C23.9894 18.5902 23.78 18.5038 23.5617 18.5038C23.3434 18.5038 23.1339 18.5902 22.9792 18.7442L22.4852 19.2382C22.331 19.3928 22.2444 19.6023 22.2444 19.8207C22.2444 20.0391 22.331 20.2485 22.4852 20.4032L28.1112 26.0292Z" fill="#8575A9"/>
</svg>
