<svg width="52" height="53" viewBox="0 0 52 53" fill="none" xmlns="http://www.w3.org/2000/svg">
<path fill-rule="evenodd" clip-rule="evenodd" d="M12.848 0.637135C6.83195 1.28313 2.61395 4.48713 0.863952 9.74313C-0.0360482 12.4341 -4.65853e-05 11.7921 -4.65853e-05 26.5111C-4.65853e-05 38.7271 0.0159508 39.7831 0.219951 40.8521C1.52995 47.7311 5.99695 51.7091 13.189 52.4001C15.689 52.6401 38.851 52.5001 40.289 52.2341C47.063 50.9891 51.107 46.4951 51.828 39.4101C52.002 37.7101 52.002 15.3101 51.828 13.6101C51.106 6.52513 47.064 2.03213 40.289 0.786133C38.989 0.547133 14.9059 0.416135 12.8469 0.637135M14.3469 17.7611C17.1199 19.4361 20.447 22.8331 21.27 24.8201C22.528 27.8721 19.687 32.1991 14.163 35.6411C12.74 36.5281 11.863 36.4781 11.117 35.4691C10.3549 34.4371 10.862 33.2471 12.397 32.4691C14.697 31.3021 17.566 28.0801 17.566 26.6691C17.566 25.2341 14.935 22.2761 12.393 20.8551C10.893 20.0151 10.393 18.8621 11.086 17.8091C11.742 16.8091 12.7389 16.7951 14.346 17.7651M39.246 32.3441C39.6959 32.4248 40.1042 32.6583 40.4021 33.0051C40.6999 33.352 40.8689 33.7909 40.8807 34.2479C40.8924 34.7049 40.7461 35.1519 40.4666 35.5136C40.187 35.8753 39.7912 36.1294 39.346 36.2331C38.736 36.4021 28.721 36.4021 28.111 36.2331C27.6742 36.1355 27.2828 35.8942 26.9994 35.5478C26.716 35.2014 26.557 34.77 26.5478 34.3225C26.5385 33.8751 26.6797 33.4374 26.9486 33.0797C27.2175 32.7219 27.5986 32.4647 28.031 32.3491C28.605 32.2131 38.667 32.2091 39.249 32.3491" fill="black"/>
</svg>
