<svg width="38" height="39" viewBox="0 0 38 39" fill="none" xmlns="http://www.w3.org/2000/svg">
<path fill-rule="evenodd" clip-rule="evenodd" d="M17.1319 0.8279C13.3002 1.228 9.68219 2.78955 6.7627 5.30333C3.84322 7.81711 1.76167 11.1631 0.796927 14.8929C0.125585 17.5821 0.0611185 20.3871 0.608199 23.1043C1.15528 25.8216 2.3002 28.383 3.95993 30.6029C4.31393 31.0659 4.31693 31.0619 4.29493 30.3029C4.2789 29.3843 4.4175 28.4695 4.70492 27.5969L4.93593 26.8969L4.69793 26.4429C3.43871 23.976 2.86412 21.2165 3.03402 18.452C3.20392 15.6874 4.1121 13.0191 5.66392 10.7249C6.76775 9.07603 8.15604 7.63662 9.76393 6.4739C10.0027 6.32432 10.211 6.13092 10.3779 5.9039C12.6779 2.7909 17.9849 1.27591 22.1539 2.53991C24.2247 3.16991 26.0666 4.39046 27.4539 6.05191C27.6684 6.29617 27.913 6.51223 28.1819 6.6949C29.3487 7.65026 30.4204 8.71622 31.3819 9.8779C32.91 11.8116 33.9514 14.0839 34.4186 16.5038C34.8858 18.9237 34.7652 21.4203 34.0669 23.7839C33.8017 24.651 33.4673 25.4954 33.0669 26.3089L32.7879 26.9029L32.9759 27.4239C33.2803 28.2444 33.4163 29.1177 33.3759 29.9919C33.3604 30.314 33.3718 30.6367 33.4099 30.9569C33.9252 30.346 34.3951 29.6983 34.8159 29.0189C37.3204 24.8537 38.0942 19.8734 36.9716 15.1447C35.849 10.416 32.9192 6.31496 28.8099 3.71991C25.3613 1.45167 21.2405 0.431186 17.1319 0.8279ZM17.7789 3.92791C15.3521 4.21773 13.1252 5.41621 11.5466 7.28207C9.96792 9.14793 9.15481 11.5426 9.27093 13.9839C9.3559 15.3783 9.73207 16.7394 10.3752 17.9795C11.0183 19.2196 11.9142 20.3112 13.0049 21.1839C13.3959 21.4729 13.3969 21.4679 12.9389 21.5749C12.5389 21.6689 12.4819 21.5379 13.5739 23.0499C15.1783 25.347 16.9346 27.5342 18.8309 29.5969L18.9849 29.7399L19.2289 29.4739C21.0723 27.3608 22.7804 25.1333 24.3429 22.8049C25.1359 21.6349 25.1309 21.6569 24.6539 21.5219L24.3939 21.4479L24.6869 21.1899C24.8479 21.0479 25.1259 20.8079 25.3059 20.6559C26.2606 19.7761 27.0325 18.7168 27.5774 17.5385C28.1224 16.3602 28.4298 15.0861 28.4819 13.7889C28.5071 12.4142 28.2408 11.0498 27.7005 9.78551C27.1602 8.52121 26.3582 7.38572 25.3473 6.45381C24.3364 5.52189 23.1395 4.81471 21.8355 4.37882C20.5316 3.94293 19.15 3.78822 17.7819 3.9249M23.5489 9.13691C24.1107 9.24828 24.6238 9.53169 25.0172 9.94783C25.4107 10.364 25.6648 10.8922 25.7445 11.4593C25.8242 12.0265 25.7254 12.6043 25.4619 13.1127C25.1984 13.6212 24.7832 14.035 24.2739 14.2969L23.8739 14.4969L19.1209 14.5169C13.4549 14.5399 13.4879 14.5439 12.6949 13.7509C12.3616 13.3789 12.1343 12.9242 12.0365 12.4344C11.9388 11.9445 11.9742 11.4374 12.1392 10.9659C12.3041 10.4945 12.5926 10.0759 12.9744 9.75381C13.3562 9.43175 13.8174 9.21803 14.3099 9.13491C14.8859 9.05191 23.1589 9.05291 23.5489 9.13491M15.3489 10.8849C15.1036 10.9888 14.9004 11.1722 14.772 11.4055C14.6435 11.6389 14.5973 11.9087 14.6408 12.1715C14.6842 12.4343 14.8148 12.6749 15.0115 12.8545C15.2082 13.0341 15.4596 13.1423 15.7253 13.1617C15.9909 13.1812 16.2554 13.1107 16.4762 12.9616C16.6969 12.8125 16.8611 12.5935 16.9423 12.3398C17.0236 12.0861 17.0171 11.8125 16.924 11.5629C16.8308 11.3134 16.6565 11.1024 16.4289 10.9639C16.2703 10.8604 16.088 10.7989 15.8991 10.7851C15.7102 10.7712 15.5209 10.8056 15.3489 10.8849ZM21.3589 10.9229C21.0878 11.0875 20.8884 11.3479 20.8 11.6525C20.7117 11.9571 20.7409 12.2838 20.8819 12.5679C20.9983 12.7694 21.1713 12.9323 21.3795 13.0362C21.5877 13.1402 21.8218 13.1807 22.0528 13.1527C22.2838 13.1246 22.5015 13.0293 22.6787 12.8786C22.856 12.7279 22.9851 12.5284 23.0499 12.3049C23.1147 12.0814 23.1124 11.8438 23.0432 11.6216C22.9741 11.3994 22.8412 11.2025 22.661 11.0552C22.4808 10.908 22.2613 10.8169 22.0298 10.7934C21.7983 10.7699 21.565 10.8149 21.3589 10.9229ZM6.90993 17.5779C6.16653 18.2056 5.47926 18.8969 4.85593 19.6439C4.75593 19.9379 4.85593 20.1629 5.36993 20.7569C5.63193 21.0619 6.16193 21.6889 6.54693 22.1489C6.93193 22.6089 7.25992 22.9849 7.27392 22.9849C7.28792 22.9849 7.53593 22.7619 7.82393 22.4849C8.37046 21.9441 8.99885 21.4929 9.68593 21.1479L10.1539 20.9249L8.83993 19.3019C8.11693 18.4089 7.49293 17.6609 7.45293 17.6389C7.28266 17.5628 7.09333 17.5402 6.90993 17.5739M30.2359 17.6739C30.1159 17.7579 28.6799 19.4809 27.8939 20.4839C27.5759 20.8899 27.5509 21.0099 27.7849 21.0149C28.6019 21.4227 29.3529 21.951 30.0129 22.5819C30.3389 22.9019 30.4369 22.9669 30.4939 22.9039C30.5329 22.8599 30.7819 22.5619 31.0479 22.2419C31.3139 21.9219 31.7959 21.3559 32.1199 20.9849C33.2119 19.7369 33.2489 19.9149 31.5549 18.2719C30.7889 17.5289 30.5799 17.4339 30.2359 17.6719M10.4529 22.7529C9.36292 23.4556 8.42396 24.3686 7.69096 25.4385C6.95796 26.5084 6.44563 27.7137 6.18393 28.9839C6.01798 30.288 5.97679 31.605 6.06093 32.9169C6.06093 34.7499 6.04293 36.4319 6.02193 36.6549L5.98393 37.0609L5.18393 37.1019C-0.269072 37.3789 -0.929075 38.0519 3.82793 38.4829C14.2296 39.2065 24.6707 39.1557 35.0649 38.3309C38.4949 37.9719 37.1869 37.3489 32.4789 37.0999L31.7009 37.0589L31.6769 33.2209L31.6529 29.3829L31.4959 28.7379C30.9251 26.3727 29.5005 24.3018 27.4959 22.9229C27.2698 22.7608 27.0299 22.6189 26.7789 22.4989C26.7529 22.5079 26.2789 23.1779 25.7299 23.9869C21.4159 30.3219 16.3299 35.8279 12.8629 37.9229C11.7011 38.0814 10.5255 38.1129 9.35693 38.0169C9.55168 37.8412 9.77015 37.6938 10.0059 37.5789C12.4489 36.0913 14.6935 34.3 16.6859 32.2479L17.7119 31.2379L17.4829 30.9759C17.3569 30.8319 16.9759 30.4009 16.6359 30.0169C14.767 27.8237 13.0216 25.5282 11.4079 23.1409C11.2662 22.9091 11.1039 22.6906 10.9229 22.4879C10.7622 22.5658 10.6069 22.6544 10.4579 22.7529" fill="black"/>
</svg>
